<svg xmlns="http://www.w3.org/2000/svg" xmlns:xlink="http://www.w3.org/1999/xlink" xmlns:lucid="lucid" width="1942" height="1535.64"><g transform="translate(677 451.8216145833333)" lucid:page-tab-id="vq18elOwDw5A"><a xlink:href="https://brandfetch.com/groq.com?view=library&amp;library=default&amp;collection=logos&amp;asset=idNEjj1u3o&amp;utm_source=https%253A%252F%252Fbrandfetch.com%252Fgroq.com&amp;utm_medium=copyAction&amp;utm_campaign=brandPageReferral" target="_blank"><path d="M-676-365.18a12 12 0 0 1 12-12h1916a12 12 0 0 1 12 12v1436a12 12 0 0 1-12 12H-664a12 12 0 0 1-12-12z" stroke="#ced4db" stroke-width="2" fill="#fff"/><path d="M-676-438.82a12 12 0 0 1 12-12h462.17a12 12 0 0 1 12 12v37.64a12 12 0 0 1-12 12H-664a12 12 0 0 1-12-12z" stroke="#ced4db" stroke-width="2" fill="#ced4db"/><use xlink:href="#a" transform="matrix(1,0,0,1,-664,-438.8216145833333) translate(0 30.317274305555557)"/><use xlink:href="#b" transform="matrix(1,0,0,1,-664,-438.8216145833333) translate(77.0941840277778 30.317274305555557)"/><use xlink:href="#c" transform="matrix(1,0,0,1,-664,-438.8216145833333) translate(297.8797743055556 30.317274305555557)"/><path class="lucid-link lucid-hotspot lucid-overlay-hotspot" d="M-676-365.18a12 12 0 0 1 12-12h1916a12 12 0 0 1 12 12v1436a12 12 0 0 1-12 12H-664a12 12 0 0 1-12-12zM-676-438.82a12 12 0 0 1 12-12h462.17a12 12 0 0 1 12 12v37.64a12 12 0 0 1-12 12H-664a12 12 0 0 1-12-12z" fill="none"/></a><path d="M-596 94.82a12 12 0 0 1 12-12h1676a12 12 0 0 1 12 12v916a12 12 0 0 1-12 12H-584a12 12 0 0 1-12-12z" stroke="#1071e5" stroke-width="4" fill-opacity="0"/><path d="M-596 21.18a12 12 0 0 1 12-12h212.04a12 12 0 0 1 12 12v37.64a12 12 0 0 1-12 12H-584a12 12 0 0 1-12-12z" stroke="#1071e5" stroke-width="4" fill="#1071e5"/><use xlink:href="#d" transform="matrix(1,0,0,1,-584,21.1783854166667) translate(0 30.317274305555557)"/><path d="M-596-225.18a12 12 0 0 1 12-12h1756a12 12 0 0 1 12 12v178.64a12 12 0 0 1-12 12H-584a12 12 0 0 1-12-12z" stroke="#1071e5" stroke-width="4" fill-opacity="0"/><path d="M-596-298.82a12 12 0 0 1 12-12h467.9a12 12 0 0 1 12 12v37.64a12 12 0 0 1-12 12H-584a12 12 0 0 1-12-12z" stroke="#1071e5" stroke-width="4" fill="#1071e5"/><use xlink:href="#e" transform="matrix(1,0,0,1,-584,-298.8216145833333) translate(0 30.317274305555557)"/><use xlink:href="#f" transform="matrix(1,0,0,1,-584,-298.8216145833333) translate(76.47135416666667 30.317274305555557)"/><use xlink:href="#g" transform="matrix(1,0,0,1,-584,-298.8216145833333) translate(193.22916666666669 30.317274305555557)"/><use xlink:href="#h" transform="matrix(1,0,0,1,-584,-298.8216145833333) translate(256.8793402777778 30.317274305555557)"/><path d="M-546 264.65a12 12 0 0 1 12-12h906a12 12 0 0 1 12 12v476a12 12 0 0 1-12 12h-906a12 12 0 0 1-12-12z" fill-opacity="0"/><path d="M-537.1 253.1l1.22-.3 1.88-.15h3.97m15.9 0h7.95m15.9 0h7.94m15.9 0h7.94m15.9 0h7.94m15.9 0h7.94m15.9 0h7.95m15.9 0h7.94m15.9 0h7.94m15.9 0h7.95m15.9 0h7.94m15.9 0h7.94m15.9 0h7.94m15.9 0h7.94m15.9 0h7.94m15.9 0h7.94m15.9 0h7.95m15.9 0h7.94m15.88 0h7.95m15.9 0h7.94m15.9 0h7.95m15.9 0h7.94m15.9 0h7.94m15.9 0h7.94m15.9 0h7.94m15.9 0h7.95m15.9 0h7.94m15.9 0h7.94m15.9 0h7.95m15.9 0h7.95m15.9 0h7.94m15.9 0h7.94m15.9 0h7.94m15.9 0h7.94m15.9 0h7.94m15.9 0h7.95m15.9 0h7.94m15.88 0h7.95m15.9 0H372l1.88.14 1.22.3m8.46 8.45l.3 1.22.14 1.88v3.96m0 15.88v7.93m0 15.88v7.93m0 15.88V340m0 15.88v7.93m0 15.88v7.93m0 15.88v7.93m0 15.88v7.93m0 15.88V459m0 15.88v7.93m0 15.88v7.93m0 15.88v7.93m0 15.88v7.93m0 15.88V578m0 15.88v7.93m0 15.88v7.93m0 15.88v7.93m0 15.88v7.93m0 15.88V697m0 15.88v7.93m0 15.88v3.97l-.15 1.87-.3 1.22m-8.45 8.47l-1.22.3-1.88.15h-3.97m-15.9 0h-7.95m-15.9 0h-7.94m-15.9 0h-7.94m-15.9 0h-7.94m-15.9 0h-7.94m-15.9 0h-7.95m-15.9 0h-7.94m-15.9 0h-7.94m-15.9 0h-7.95m-15.9 0h-7.95m-15.9 0h-7.94m-15.9 0h-7.94m-15.9 0H58.1m-15.9 0h-7.94m-15.9 0H10.4m-15.9 0h-7.95m-15.9 0h-7.94m-15.88 0h-7.95m-15.9 0h-7.94m-15.9 0h-7.95m-15.9 0h-7.94m-15.9 0h-7.94m-15.9 0h-7.94m-15.9 0h-7.94m-15.9 0h-7.95m-15.9 0h-7.94m-15.9 0h-7.94m-15.9 0h-7.95m-15.9 0h-7.94m-15.9 0h-7.94m-15.9 0h-7.94m-15.9 0h-7.94m-15.9 0h-7.94m-15.9 0h-7.94m-15.9 0h-7.95m-15.9 0h-7.94m-15.88 0h-7.95m-15.9 0H-534l-1.88-.15-1.22-.3m-8.46-8.46l-.3-1.22-.14-1.87v-3.97m0-15.87v-7.92m0-15.87v-7.92m0-15.87v-7.92m0-15.87v-7.92m0-15.87v-7.92m0-15.87v-7.92m0-15.87v-7.92m0-15.87v-7.92m0-15.87v-7.92m0-15.87v-7.92m0-15.87v-7.92m0-15.87v-7.92m0-15.87v-7.92m0-15.87v-7.92m0-15.87v-7.92m0-15.87v-7.92m0-15.87v-7.92m0-15.87v-7.92m0-15.87v-7.92m0-15.87v-3.95l.15-1.88.3-1.22" stroke="#fcce14" stroke-width="4" fill="none"/><path d="M-546 191a12 12 0 0 1 12-12h161.83a12 12 0 0 1 12 12v37.65a12 12 0 0 1-12 12H-534a12 12 0 0 1-12-12z" fill="#fcce14"/><path d="M-537.1 179.44l1.22-.3 1.88-.14h3.85m15.4 0h7.72m15.4 0h7.72m15.4 0h7.7m15.42 0h7.7m15.42 0h7.7m15.42 0h7.7m15.42 0h3.85l1.88.15 1.23.3m8.46 8.46l.28 1.22.15 1.88v3.14m0 12.55v6.26m0 12.55v3.15l-.15 1.87-.3 1.22m-8.45 8.47l-1.22.3-1.87.15h-3.85m-15.42 0h-7.7m-15.4 0h-7.72m-15.4 0h-7.72m-15.4 0h-7.72m-15.4 0h-7.72m-15.4 0h-7.72m-15.4 0H-534l-1.88-.15-1.22-.3m-8.46-8.46l-.3-1.22-.14-1.87v-3.14m0-12.54v-6.27m0-12.56V191l.15-1.88.3-1.22" stroke="#fcce14" stroke-width="4" fill="none"/><use xlink:href="#i" transform="matrix(1,0,0,1,-534,191.0025029506175) translate(0 30.317274305555557)"/><use xlink:href="#j" transform="matrix(1,0,0,1,-534,191.0025029506175) translate(81.62109375 30.317274305555557)"/><path d="M484 312a12 12 0 0 1 12-12h556a12 12 0 0 1 12 12v376a12 12 0 0 1-12 12H496a12 12 0 0 1-12-12z" fill-opacity="0"/><path d="M492.9 300.44l1.22-.3L496 300h4.03m16.12 0h8.05m16.12 0h8.06m16.1 0h8.07m16.12 0h8.06m16.1 0h8.07m16.1 0h8.07m16.12 0h8.05m16.1 0h8.07m16.12 0h8.05m16.1 0h8.07m16.1 0h8.07m16.12 0h8.06m16.1 0h8.07m16.1 0h8.06m16.12 0h8.06m16.1 0h8.07m16.13 0H911m16.1 0h8.06m16.12 0h8.05m16.12 0h8.06m16.12 0h8.06m16.12 0h8.06m16.1 0h4.04l1.88.15 1.22.3m8.46 8.45l.3 1.22.14 1.88v3.92m0 15.66v7.84m0 15.66v7.84m0 15.66v7.84m0 15.66v7.84m0 15.66v7.84m0 15.66v7.84m0 15.66v7.84m0 15.66v7.84m0 15.66v7.84m0 15.66v7.84m0 15.66v7.84m0 15.66v7.84m0 15.66v7.84m0 15.66v7.84m0 15.66v7.84m0 15.66V688l-.15 1.88-.3 1.22m-8.45 8.46l-1.22.3-1.88.14h-4.03m-16.12 0h-8.05m-16.12 0h-8.06m-16.1 0h-8.07m-16.12 0h-8.06m-16.1 0h-8.07m-16.1 0h-8.07m-16.12 0h-8.05m-16.1 0h-8.07m-16.12 0h-8.05m-16.1 0h-8.07m-16.1 0h-8.07m-16.12 0h-8.06m-16.1 0h-8.07m-16.1 0h-8.06m-16.12 0h-8.06m-16.1 0h-8.07m-16.13 0H637m-16.1 0h-8.06m-16.12 0h-8.05m-16.12 0h-8.06m-16.12 0h-8.06m-16.12 0h-8.06m-16.1 0H496l-1.88-.15-1.22-.3m-8.46-8.45l-.3-1.22L484 688v-3.92m0-15.66v-7.84m0-15.66v-7.84m0-15.66v-7.84m0-15.66v-7.84m0-15.66v-7.84m0-15.66v-7.84m0-15.66v-7.84m0-15.66v-7.84m0-15.66v-7.84m0-15.66v-7.84m0-15.66v-7.84m0-15.66v-7.84m0-15.66v-7.84m0-15.66v-7.84m0-15.66v-7.84m0-15.66V312l.15-1.88.3-1.22" stroke="#fcce14" stroke-width="4" fill="none"/><path d="M484 238.36a12 12 0 0 1 12-12h135a12 12 0 0 1 12 12V276a12 12 0 0 1-12 12H496a12 12 0 0 1-12-12z" fill="#fcce14"/><path d="M492.9 226.8l1.22-.3 1.88-.14h3.75m15 0h7.5m15 0h7.5m15 0h7.5m15 0h7.5m15 0h7.5m15 0H631l1.88.14 1.22.3m8.46 8.46l.3 1.22.14 1.88v3.13m0 12.54v6.28m0 12.54V276l-.15 1.88-.3 1.22m-8.45 8.46l-1.22.3-1.88.14h-3.75m-15 0h-7.5m-15 0h-7.5m-15 0h-7.5m-15 0h-7.5m-15 0h-7.5m-15 0H496l-1.88-.15-1.22-.3m-8.46-8.45l-.3-1.22L484 276v-3.14m0-12.55v-6.26m0-12.55v-3.14l.15-1.88.3-1.22" stroke="#fcce14" stroke-width="4" fill="none"/><use xlink:href="#k" transform="matrix(1,0,0,1,496,238.35677083333331) translate(0 30.317274305555557)"/><path d="M-346 287.43a6 6 0 0 1 6-6h468a6 6 0 0 1 6 6V514.3a6 6 0 0 1-6 6h-468a6 6 0 0 1-6-6z" stroke="#000" stroke-width="2" fill="#fff"/><use xlink:href="#l" transform="matrix(1,0,0,1,-334,293.4247538839617) translate(13.029296875 52.1875)"/><use xlink:href="#m" transform="matrix(1,0,0,1,-334,293.4247538839617) translate(152.365234375 52.1875)"/><use xlink:href="#n" transform="matrix(1,0,0,1,-334,293.4247538839617) translate(265.958984375 52.1875)"/><use xlink:href="#o" transform="matrix(1,0,0,1,-334,293.4247538839617) translate(180.87000868055554 101.65451388888889)"/><use xlink:href="#p" transform="matrix(1,0,0,1,-334,293.4247538839617) translate(174.01888020833331 146.82638888888889)"/><use xlink:href="#q" transform="matrix(1,0,0,1,-334,293.4247538839617) translate(176.03168402777777 191.99826388888889)"/><path d="M-526 606.3a6 6 0 0 1 6-6h168a6 6 0 0 1 6 6v108a6 6 0 0 1-6 6h-168a6 6 0 0 1-6-6z" stroke="#008a0e" stroke-width="2" fill="#e3fae3"/><use xlink:href="#r" transform="matrix(1,0,0,1,-514,612.3047736831398) translate(19.98567708333332 60.13888888888889)"/><path d="M-196 606.3a6 6 0 0 1 6-6h168a6 6 0 0 1 6 6v108a6 6 0 0 1-6 6h-168a6 6 0 0 1-6-6z" stroke="#cc4e00" stroke-width="2" fill="#fff3d9"/><use xlink:href="#s" transform="matrix(1,0,0,1,-184,612.3047736831398) translate(28.196397569444436 60.13888888888889)"/><path d="M134 606.3a6 6 0 0 1 6-6h208a6 6 0 0 1 6 6v108a6 6 0 0 1-6 6H140a6 6 0 0 1-6-6z" stroke="#1071e5" stroke-width="2" fill="#edf5ff"/><use xlink:href="#t" transform="matrix(1,0,0,1,146,612.3047736831398) translate(11.213975694444429 60.13888888888889)"/><use xlink:href="#u" transform="matrix(1,0,0,1,146,612.3047736831398) translate(106.71961805555554 60.13888888888889)"/><use xlink:href="#v" transform="matrix(1,0,0,1,146,612.3047736831398) translate(128.64019097222223 60.13888888888889)"/><path d="M-436 598.8V406.87a6 6 0 0 1 6-6h66.62" stroke="#3a414a" fill="none"/><path d="M-435.52 599.3h-.96v-.5h.96z" stroke="#3a414a" stroke-width=".05" fill="#3a414a"/><path d="M-348.62 400.87l-14.26 4.63v-9.27z" stroke="#3a414a" fill="#3a414a"/><path d="M-106 598.8v-61.1" stroke="#3a414a" fill="none"/><path d="M-105.53 599.3h-.94v-.5h.94z" stroke="#3a414a" stroke-width=".05" fill="#3a414a"/><path d="M-106 522.92l4.64 14.27h-9.28z" stroke="#3a414a" fill="#3a414a"/><path d="M244 598.8V406.87a6 6 0 0 0-6-6h-86.62" stroke="#3a414a" fill="none"/><path d="M244.47 599.3h-.94v-.5h.94z" stroke="#3a414a" stroke-width=".05" fill="#3a414a"/><path d="M136.62 400.87l14.26-4.64v9.27z" stroke="#3a414a" fill="#3a414a"/><path d="M-304.5-137.18h72.12" stroke="#3a414a" fill="none"/><path d="M-304.5-136.7h-.5v-.95h.5z" stroke="#3a414a" stroke-width=".05" fill="#3a414a"/><path d="M-217.62-137.18l-14.26 4.64v-9.27z" stroke="#3a414a" fill="#3a414a"/><path d="M15.5-137.18h56.1" stroke="#3a414a" fill="none"/><path d="M15.5-136.7H15v-.95h.5z" stroke="#3a414a" stroke-width=".05" fill="#3a414a"/><path d="M86.38-137.18l-14.27 4.64.02-9.27z" stroke="#3a414a" fill="#3a414a"/><path d="M290.5-137.18h56.12" stroke="#3a414a" fill="none"/><path d="M290.5-136.7h-.5v-.95h.5z" stroke="#3a414a" stroke-width=".05" fill="#3a414a"/><path d="M361.38-137.18l-14.26 4.64v-9.27z" stroke="#3a414a" fill="#3a414a"/><path d="M785.5-137.18h51.12" stroke="#3a414a" fill="none"/><path d="M785.5-136.7h-.5v-.95h.5z" stroke="#3a414a" stroke-width=".05" fill="#3a414a"/><path d="M851.38-137.18l-14.26 4.64v-9.27z" stroke="#3a414a" fill="#3a414a"/><path d="M-546-191.18a6 6 0 0 1 6-6h228a6 6 0 0 1 6 6v108a6 6 0 0 1-6 6h-228a6 6 0 0 1-6-6z" stroke="#000" stroke-width="2" fill="#fff"/><use xlink:href="#w" transform="matrix(1,0,0,1,-534,-185.17838541666663) translate(52.015299479166664 38.68055555555556)"/><use xlink:href="#x" transform="matrix(1,0,0,1,-534,-185.17838541666663) translate(116.30132378472223 38.68055555555556)"/><use xlink:href="#y" transform="matrix(1,0,0,1,-534,-185.17838541666663) translate(42.257812499999986 74.17274305555556)"/><path d="M-226-191.18a6 6 0 0 1 6-6H8a6 6 0 0 1 6 6v108a6 6 0 0 1-6 6h-228a6 6 0 0 1-6-6z" stroke="#000" stroke-width="2" fill="#fff"/><use xlink:href="#z" transform="matrix(1,0,0,1,-214,-185.17838541666657) translate(39.16644965277777 38.68055555555556)"/><use xlink:href="#A" transform="matrix(1,0,0,1,-214,-185.17838541666657) translate(127.443359375 38.68055555555556)"/><use xlink:href="#B" transform="matrix(1,0,0,1,-214,-185.17838541666657) translate(80.85210503472223 74.17274305555556)"/><path d="M89-191.18a6 6 0 0 1 6-6h188a6 6 0 0 1 6 6v108a6 6 0 0 1-6 6H95a6 6 0 0 1-6-6z" stroke="#000" stroke-width="2" fill="#fff"/><use xlink:href="#C" transform="matrix(1,0,0,1,101,-185.17838541666663) translate(26.650173611111107 38.68055555555556)"/><use xlink:href="#A" transform="matrix(1,0,0,1,101,-185.17838541666663) translate(99.95963541666666 38.68055555555556)"/><use xlink:href="#D" transform="matrix(1,0,0,1,101,-185.17838541666663) translate(46.541124131944436 74.17274305555556)"/><path d="M364-191.18a6 6 0 0 1 6-6h408a6 6 0 0 1 6 6v108a6 6 0 0 1-6 6H370a6 6 0 0 1-6-6z" stroke="#000" stroke-width="2" fill="#fff"/><g><use xlink:href="#E" transform="matrix(1,0,0,1,376,-185.17838541666663) translate(132.55620659722223 38.68055555555556)"/><use xlink:href="#A" transform="matrix(1,0,0,1,376,-185.17838541666663) translate(214.05360243055557 38.68055555555556)"/><use xlink:href="#F" transform="matrix(1,0,0,1,376,-185.17838541666663) translate(10.668185763888886 74.17274305555556)"/></g><path d="M854-191.18a6 6 0 0 1 6-6h268a6 6 0 0 1 6 6v108a6 6 0 0 1-6 6H860a6 6 0 0 1-6-6z" stroke="#000" stroke-width="2" fill="#fff"/><g><use xlink:href="#G" transform="matrix(1,0,0,1,866,-185.17838541666663) translate(8.045572916666657 38.68055555555556)"/><use xlink:href="#H" transform="matrix(1,0,0,1,866,-185.17838541666663) translate(145.53363715277777 38.68055555555556)"/><use xlink:href="#I" transform="matrix(1,0,0,1,866,-185.17838541666663) translate(18.48936631944443 74.17274305555556)"/></g><path d="M294-32.04v33.5a6 6 0 0 1-6 6H-75a6 6 0 0 0-6 6v220.8" stroke="#3a414a" fill="none"/><path d="M294.48-32.03h-.96v-.5h.96z" stroke="#3a414a" stroke-width=".05" fill="#3a414a"/><path d="M-81 249.03l-4.64-14.27h9.28z" stroke="#3a414a" fill="#3a414a"/><path d="M-56 116.06a6 6 0 0 1 6-6h384a6 6 0 0 1 6 6v71.88a6 6 0 0 1-6 6H-50a6 6 0 0 1-6-6z" fill="none"/><g><use xlink:href="#J" transform="matrix(1,0,0,1,-56,110.06157498497674) translate(0 32.34114583333333)"/><use xlink:href="#K" transform="matrix(1,0,0,1,-56,110.06157498497674) translate(58.58072916666667 32.34114583333333)"/><use xlink:href="#L" transform="matrix(1,0,0,1,-56,110.06157498497674) translate(164.15364583333334 32.34114583333333)"/><use xlink:href="#M" transform="matrix(1,0,0,1,-56,110.06157498497674) translate(314.9479166666667 32.34114583333333)"/><use xlink:href="#N" transform="matrix(1,0,0,1,-56,110.06157498497674) translate(0 71.05989583333333)"/><use xlink:href="#O" transform="matrix(1,0,0,1,-56,110.06157498497674) translate(63.89322916666667 71.05989583333333)"/><use xlink:href="#P" transform="matrix(1,0,0,1,-56,110.06157498497674) translate(227.82552083333337 71.05989583333333)"/><use xlink:href="#Q" transform="matrix(1,0,0,1,-56,110.06157498497674) translate(259.81770833333337 71.05989583333333)"/><use xlink:href="#R" transform="matrix(1,0,0,1,-56,110.06157498497674) translate(307.18750000000006 71.05989583333333)"/></g><path d="M-253.5 788.82a6 6 0 0 1 6-6h333a6 6 0 0 1 6 6v188a6 6 0 0 1-6 6h-333a6 6 0 0 1-6-6z" fill="none"/><g><use xlink:href="#S" transform="matrix(1,0,0,1,-253.5,782.8216145833334) translate(0 66.14539930555554)"/><use xlink:href="#T" transform="matrix(1,0,0,1,-253.5,782.8216145833334) translate(0 111.31727430555554)"/><use xlink:href="#U" transform="matrix(1,0,0,1,-253.5,782.8216145833334) translate(26.666666666666668 111.31727430555554)"/><use xlink:href="#V" transform="matrix(1,0,0,1,-253.5,782.8216145833334) translate(108.33333333333334 111.31727430555554)"/><use xlink:href="#W" transform="matrix(1,0,0,1,-253.5,782.8216145833334) translate(3.552713678800501e-15 156.48914930555557)"/><use xlink:href="#X" transform="matrix(1,0,0,1,-253.5,782.8216145833334) translate(33.94878472222223 156.48914930555557)"/><use xlink:href="#Y" transform="matrix(1,0,0,1,-253.5,782.8216145833334) translate(164.33289930555557 156.48914930555557)"/></g><path d="M544 364.9a6 6 0 0 1 6-6h448a6 6 0 0 1 6 6v275.5a6 6 0 0 1-6 6H550a6 6 0 0 1-6-6z" stroke="#000" stroke-width="2" fill="#fff"/><g><use xlink:href="#Z" transform="matrix(1,0,0,1,556,370.8944300339508) translate(62.900173611111114 34.26388888888889)"/><use xlink:href="#aa" transform="matrix(1,0,0,1,556,370.8944300339508) translate(164.22395833333334 34.26388888888889)"/><use xlink:href="#ab" transform="matrix(1,0,0,1,556,370.8944300339508) translate(261.21831597222223 34.26388888888889)"/><use xlink:href="#ac" transform="matrix(1,0,0,1,556,370.8944300339508) translate(218 79.4357638888889)"/><use xlink:href="#ad" transform="matrix(1,0,0,1,556,370.8944300339508) translate(153.91688368055554 124.60763888888891)"/><use xlink:href="#ae" transform="matrix(1,0,0,1,556,370.8944300339508) translate(168.10525173611111 169.7795138888889)"/><use xlink:href="#af" transform="matrix(1,0,0,1,556,370.8944300339508) translate(204.30533854166669 169.7795138888889)"/><use xlink:href="#ag" transform="matrix(1,0,0,1,556,370.8944300339508) translate(72.85785590277777 214.9513888888889)"/><use xlink:href="#ah" transform="matrix(1,0,0,1,556,370.8944300339508) translate(109.63519965277777 214.9513888888889)"/><use xlink:href="#ai" transform="matrix(1,0,0,1,556,370.8944300339508) translate(222.716796875 214.9513888888889)"/><use xlink:href="#aj" transform="matrix(1,0,0,1,556,370.8944300339508) translate(138.39930555555554 260.1232638888889)"/></g><path d="M542.5 502.65H402.38" stroke="#000" fill="none"/><path d="M543 503.12h-.5v-.95h.5z" stroke="#000" stroke-width=".05"/><path d="M387.62 502.65l14.26-4.64v9.28z" stroke="#000"/><defs><path d="M52 0l541-1490h220L1361 0h-200l-149-416H398L254 0H52zm404-582h497c-103-290-145-390-251-756-108 377-145 460-246 756" id="ak"/><path d="M180 0v-1490h224l606 953c40 63 108 177 176 312-27-437-7-821-13-1265h190V0h-226C860-448 622-778 356-1262c27 476 11 792 15 1262H180" id="al"/><g id="a"><use transform="matrix(0.015190972222222224,0,0,0.015190972222222224,0,0)" xlink:href="#ak"/><use transform="matrix(0.015190972222222224,0,0,0.015190972222222224,21.464843750000004,0)" xlink:href="#al"/><use transform="matrix(0.015190972222222224,0,0,0.015190972222222224,44.9045138888889,0)" xlink:href="#al"/></g><path d="M180 0v-1490h528c311 0 458 177 458 395 0 191-114 278-244 313v14c139 9 302 137 302 371 0 225-148 397-499 397H180zm190-168h350c232 0 321-102 321-231 0-149-120-277-311-277H370v508zm0-668h328c160 0 286-101 286-255 0-129-87-231-280-231H370v486" id="am"/><path d="M628 24c-324 0-524-230-524-574 0-343 198-582 503-582 237 0 487 146 487 559v75H286c9 234 145 362 343 362 132 0 231-58 273-172l174 48C1024-91 857 24 628 24zM287-650h624c-17-190-120-322-304-322-192 0-309 151-320 322" id="an"/><path d="M338-670V0H158v-1118h173l1 207c72-158 192-221 342-221 226 0 378 139 378 422V0H872v-695c0-172-96-275-252-275-161 0-282 109-282 300" id="ao"/><path d="M613 24c-304 0-509-231-509-576 0-350 205-580 509-580 216 0 392 114 453 309l-173 49c-33-115-133-197-280-197-223 0-326 196-326 419 0 220 103 415 326 415 150 0 252-85 285-206l172 49C1010-95 832 24 613 24" id="ap"/><path d="M338-670V0H158v-1490h180v566c73-149 190-208 336-208 226 0 379 139 379 422V0H872v-695c0-172-96-275-252-275-161 0-282 109-282 300" id="aq"/><path d="M158 0v-1118h175l1 205c55-151 181-225 313-225 147 0 245 90 285 228 53-141 190-228 352-228 194 0 352 125 352 384V0h-181v-749c0-161-105-225-225-225-151 0-243 103-243 244V0H807v-767c0-124-93-207-219-207-131 0-250 92-250 270V0H158" id="ar"/><path d="M471 26C259 26 90-98 90-318c0-256 228-303 435-329 202-27 287-16 287-108 0-139-79-219-234-219-161 0-248 86-283 164l-173-57c86-203 278-265 451-265 150 0 419 46 419 395V0H815v-152h-12C765-73 660 26 471 26zm31-159c199 0 310-134 310-271v-155c-30 35-226 55-295 64-131 17-246 59-246 186 0 116 97 176 231 176" id="as"/><path d="M158 0v-1118h174v172h12c41-113 157-188 290-188 26 0 70 2 91 3v181c-11-2-60-10-108-10-161 0-279 109-279 260V0H158" id="at"/><path d="M158 0v-1490h180v865h22l478-493h223L593-638 1096 0H865L456-523 338-412V0H158" id="au"/><path d="M158 0v-1118h180V0H158zm91-1301c-68 0-125-53-125-119s57-119 125-119c69 0 126 53 126 119s-57 119-126 119" id="av"/><path d="M611 442c-248 0-391-105-460-228l146-94c47 65 117 165 314 165 178 0 307-82 307-266v-224h-17C863-141 792-18 576-18c-268 0-472-195-472-546 0-346 197-568 476-568 216 0 288 133 326 193h17v-179h175V29c0 289-215 413-487 413zm-5-620c203 0 314-146 314-390 0-237-108-403-314-403-213 0-319 180-319 403 0 230 109 390 319 390" id="aw"/><g id="b"><use transform="matrix(0.015190972222222224,0,0,0.015190972222222224,0,0)" xlink:href="#am"/><use transform="matrix(0.015190972222222224,0,0,0.015190972222222224,20.35590277777778,0)" xlink:href="#an"/><use transform="matrix(0.015190972222222224,0,0,0.015190972222222224,38.493923611111114,0)" xlink:href="#ao"/><use transform="matrix(0.015190972222222224,0,0,0.015190972222222224,56.875,0)" xlink:href="#ap"/><use transform="matrix(0.015190972222222224,0,0,0.015190972222222224,74.6484375,0)" xlink:href="#aq"/><use transform="matrix(0.015190972222222224,0,0,0.015190972222222224,93.04470486111111,0)" xlink:href="#ar"/><use transform="matrix(0.015190972222222224,0,0,0.015190972222222224,120.29730902777779,0)" xlink:href="#as"/><use transform="matrix(0.015190972222222224,0,0,0.015190972222222224,137.76692708333334,0)" xlink:href="#at"/><use transform="matrix(0.015190972222222224,0,0,0.015190972222222224,149.9652777777778,0)" xlink:href="#au"/><use transform="matrix(0.015190972222222224,0,0,0.015190972222222224,167.03993055555557,0)" xlink:href="#av"/><use transform="matrix(0.015190972222222224,0,0,0.015190972222222224,174.5746527777778,0)" xlink:href="#ao"/><use transform="matrix(0.015190972222222224,0,0,0.015190972222222224,192.95572916666669,0)" xlink:href="#aw"/></g><path d="M180 0v-1490h901v168H370v510h643v168H370V0H180" id="ax"/><path d="M409 0L70-1118h191c89 329 165 560 243 925 75-353 154-601 240-925h192c85 325 161 564 235 922 77-354 157-598 244-922h191L1267 0h-179c-86-307-176-590-250-913C763-588 675-308 588 0H409" id="ay"/><path d="M613 24c-304 0-509-231-509-576 0-350 205-580 509-580 305 0 511 230 511 580 0 345-206 576-511 576zm0-161c226 0 329-195 329-415 0-222-103-419-329-419-223 0-326 196-326 419 0 220 103 415 326 415" id="az"/><g id="c"><use transform="matrix(0.015190972222222224,0,0,0.015190972222222224,0,0)" xlink:href="#ax"/><use transform="matrix(0.015190972222222224,0,0,0.015190972222222224,17.454427083333336,0)" xlink:href="#at"/><use transform="matrix(0.015190972222222224,0,0,0.015190972222222224,29.16666666666667,0)" xlink:href="#as"/><use transform="matrix(0.015190972222222224,0,0,0.015190972222222224,46.63628472222223,0)" xlink:href="#ar"/><use transform="matrix(0.015190972222222224,0,0,0.015190972222222224,73.8888888888889,0)" xlink:href="#an"/><use transform="matrix(0.015190972222222224,0,0,0.015190972222222224,91.46484375,0)" xlink:href="#ay"/><use transform="matrix(0.015190972222222224,0,0,0.015190972222222224,116.36284722222221,0)" xlink:href="#az"/><use transform="matrix(0.015190972222222224,0,0,0.015190972222222224,135.01736111111111,0)" xlink:href="#at"/><use transform="matrix(0.015190972222222224,0,0,0.015190972222222224,147.21571180555557,0)" xlink:href="#au"/></g><path fill="#fff" d="M180 0v-1490h528c311 0 458 177 458 395 0 191-114 278-244 313v14c139 9 302 137 302 371 0 225-148 397-499 397H180zm190-168h350c232 0 321-102 321-231 0-149-120-277-311-277H370v508zm0-668h328c160 0 286-101 286-255 0-129-87-231-280-231H370v486" id="aA"/><path fill="#fff" d="M628 24c-324 0-524-230-524-574 0-343 198-582 503-582 237 0 487 146 487 559v75H286c9 234 145 362 343 362 132 0 231-58 273-172l174 48C1024-91 857 24 628 24zM287-650h624c-17-190-120-322-304-322-192 0-309 151-320 322" id="aB"/><path fill="#fff" d="M338-670V0H158v-1118h173l1 207c72-158 192-221 342-221 226 0 378 139 378 422V0H872v-695c0-172-96-275-252-275-161 0-282 109-282 300" id="aC"/><path fill="#fff" d="M613 24c-304 0-509-231-509-576 0-350 205-580 509-580 216 0 392 114 453 309l-173 49c-33-115-133-197-280-197-223 0-326 196-326 419 0 220 103 415 326 415 150 0 252-85 285-206l172 49C1010-95 832 24 613 24" id="aD"/><path fill="#fff" d="M338-670V0H158v-1490h180v566c73-149 190-208 336-208 226 0 379 139 379 422V0H872v-695c0-172-96-275-252-275-161 0-282 109-282 300" id="aE"/><path fill="#fff" d="M158 0v-1118h175l1 205c55-151 181-225 313-225 147 0 245 90 285 228 53-141 190-228 352-228 194 0 352 125 352 384V0h-181v-749c0-161-105-225-225-225-151 0-243 103-243 244V0H807v-767c0-124-93-207-219-207-131 0-250 92-250 270V0H158" id="aF"/><path fill="#fff" d="M471 26C259 26 90-98 90-318c0-256 228-303 435-329 202-27 287-16 287-108 0-139-79-219-234-219-161 0-248 86-283 164l-173-57c86-203 278-265 451-265 150 0 419 46 419 395V0H815v-152h-12C765-73 660 26 471 26zm31-159c199 0 310-134 310-271v-155c-30 35-226 55-295 64-131 17-246 59-246 186 0 116 97 176 231 176" id="aG"/><path fill="#fff" d="M158 0v-1118h174v172h12c41-113 157-188 290-188 26 0 70 2 91 3v181c-11-2-60-10-108-10-161 0-279 109-279 260V0H158" id="aH"/><path fill="#fff" d="M158 0v-1490h180v865h22l478-493h223L593-638 1096 0H865L456-523 338-412V0H158" id="aI"/><path fill="#fff" d="M158 0v-1118h180V0H158zm91-1301c-68 0-125-53-125-119s57-119 125-119c69 0 126 53 126 119s-57 119-126 119" id="aJ"/><path fill="#fff" d="M611 442c-248 0-391-105-460-228l146-94c47 65 117 165 314 165 178 0 307-82 307-266v-224h-17C863-141 792-18 576-18c-268 0-472-195-472-546 0-346 197-568 476-568 216 0 288 133 326 193h17v-179h175V29c0 289-215 413-487 413zm-5-620c203 0 314-146 314-390 0-237-108-403-314-403-213 0-319 180-319 403 0 230 109 390 319 390" id="aK"/><g id="d"><use transform="matrix(0.015190972222222224,0,0,0.015190972222222224,0,0)" xlink:href="#aA"/><use transform="matrix(0.015190972222222224,0,0,0.015190972222222224,20.35590277777778,0)" xlink:href="#aB"/><use transform="matrix(0.015190972222222224,0,0,0.015190972222222224,38.493923611111114,0)" xlink:href="#aC"/><use transform="matrix(0.015190972222222224,0,0,0.015190972222222224,56.875,0)" xlink:href="#aD"/><use transform="matrix(0.015190972222222224,0,0,0.015190972222222224,74.6484375,0)" xlink:href="#aE"/><use transform="matrix(0.015190972222222224,0,0,0.015190972222222224,93.04470486111111,0)" xlink:href="#aF"/><use transform="matrix(0.015190972222222224,0,0,0.015190972222222224,120.29730902777779,0)" xlink:href="#aG"/><use transform="matrix(0.015190972222222224,0,0,0.015190972222222224,137.76692708333334,0)" xlink:href="#aH"/><use transform="matrix(0.015190972222222224,0,0,0.015190972222222224,149.9652777777778,0)" xlink:href="#aI"/><use transform="matrix(0.015190972222222224,0,0,0.015190972222222224,167.03993055555557,0)" xlink:href="#aJ"/><use transform="matrix(0.015190972222222224,0,0,0.015190972222222224,174.5746527777778,0)" xlink:href="#aC"/><use transform="matrix(0.015190972222222224,0,0,0.015190972222222224,192.95572916666669,0)" xlink:href="#aK"/></g><path fill="#fff" d="M645 0H180v-1490h484c435 0 692 280 692 742 0 466-257 748-711 748zM370-168h263c363 0 539-218 539-580 0-358-176-574-521-574H370v1154" id="aL"/><path fill="#fff" d="M598-1118v154H368v674c0 100 37 144 132 144 23 0 62-6 92-12L629-6c-37 13-88 20-134 20-193 0-307-107-307-290v-688H20v-154h168v-266h180v266h230" id="aM"/><g id="e"><use transform="matrix(0.015190972222222224,0,0,0.015190972222222224,0,0)" xlink:href="#aL"/><use transform="matrix(0.015190972222222224,0,0,0.015190972222222224,22.452256944444446,0)" xlink:href="#aG"/><use transform="matrix(0.015190972222222224,0,0,0.015190972222222224,39.921875,0)" xlink:href="#aM"/><use transform="matrix(0.015190972222222224,0,0,0.015190972222222224,50.251736111111114,0)" xlink:href="#aG"/></g><path fill="#fff" d="M338-1490V0H158v-1490h180" id="aN"/><path fill="#fff" d="M613 24c-304 0-509-231-509-576 0-350 205-580 509-580 305 0 511 230 511 580 0 345-206 576-511 576zm0-161c226 0 329-195 329-415 0-222-103-419-329-419-223 0-326 196-326 419 0 220 103 415 326 415" id="aO"/><path fill="#fff" d="M577 24c-279 0-473-224-473-580 0-354 195-576 474-576 218 0 287 134 324 193h14v-551h180V0H922v-173h-20C865-111 790 24 577 24zm27-161c203 0 314-172 314-421 0-247-108-413-314-413-212 0-317 181-317 413 0 235 108 421 317 421" id="aP"/><g id="f"><use transform="matrix(0.015190972222222224,0,0,0.015190972222222224,0,0)" xlink:href="#aN"/><use transform="matrix(0.015190972222222224,0,0,0.015190972222222224,7.534722222222223,0)" xlink:href="#aO"/><use transform="matrix(0.015190972222222224,0,0,0.015190972222222224,26.493055555555557,0)" xlink:href="#aG"/><use transform="matrix(0.015190972222222224,0,0,0.015190972222222224,43.962673611111114,0)" xlink:href="#aP"/><use transform="matrix(0.015190972222222224,0,0,0.015190972222222224,63.012152777777786,0)" xlink:href="#aJ"/><use transform="matrix(0.015190972222222224,0,0,0.015190972222222224,70.54687500000001,0)" xlink:href="#aC"/><use transform="matrix(0.015190972222222224,0,0,0.015190972222222224,88.9279513888889,0)" xlink:href="#aK"/></g><g id="g"><use transform="matrix(0.015190972222222224,0,0,0.015190972222222224,0,0)" xlink:href="#aG"/><use transform="matrix(0.015190972222222224,0,0,0.015190972222222224,17.469618055555557,0)" xlink:href="#aC"/><use transform="matrix(0.015190972222222224,0,0,0.015190972222222224,35.85069444444444,0)" xlink:href="#aP"/></g><path fill="#fff" d="M158 418v-1536h174v179h20c37-59 106-193 324-193 279 0 474 222 474 576 0 356-194 580-473 580-213 0-288-135-325-197h-14v591H158zm492-555c209 0 317-186 317-421 0-232-105-413-317-413-206 0-314 166-314 413 0 249 111 421 314 421" id="aQ"/><path fill="#fff" d="M538 24C308 24 148-78 108-271l171-41c32 123 123 178 257 178 156 0 256-77 256-169 0-77-54-128-164-154l-186-44c-203-48-300-148-300-305 0-192 176-326 414-326 230 0 351 112 402 269l-163 42c-31-80-94-158-238-158-133 0-233 69-233 162 0 83 57 129 188 160l169 40c203 48 298 149 298 302 0 196-179 339-441 339" id="aR"/><g id="h"><use transform="matrix(0.015190972222222224,0,0,0.015190972222222224,0,0)" xlink:href="#aQ"/><use transform="matrix(0.015190972222222224,0,0,0.015190972222222224,19.049479166666668,0)" xlink:href="#aH"/><use transform="matrix(0.015190972222222224,0,0,0.015190972222222224,30.245225694444443,0)" xlink:href="#aB"/><use transform="matrix(0.015190972222222224,0,0,0.015190972222222224,48.38324652777778,0)" xlink:href="#aQ"/><use transform="matrix(0.015190972222222224,0,0,0.015190972222222224,67.43272569444444,0)" xlink:href="#aH"/><use transform="matrix(0.015190972222222224,0,0,0.015190972222222224,78.62847222222221,0)" xlink:href="#aO"/><use transform="matrix(0.015190972222222224,0,0,0.015190972222222224,97.2829861111111,0)" xlink:href="#aD"/><use transform="matrix(0.015190972222222224,0,0,0.015190972222222224,115.0564236111111,0)" xlink:href="#aB"/><use transform="matrix(0.015190972222222224,0,0,0.015190972222222224,133.19444444444443,0)" xlink:href="#aR"/><use transform="matrix(0.015190972222222224,0,0,0.015190972222222224,149.61588541666666,0)" xlink:href="#aR"/><use transform="matrix(0.015190972222222224,0,0,0.015190972222222224,166.03732638888889,0)" xlink:href="#aJ"/><use transform="matrix(0.015190972222222224,0,0,0.015190972222222224,173.57204861111111,0)" xlink:href="#aC"/><use transform="matrix(0.015190972222222224,0,0,0.015190972222222224,191.953125,0)" xlink:href="#aK"/></g><path d="M537 14c-226 0-379-139-379-422v-710h180v695c0 172 97 275 253 275 160 0 281-109 281-300v-670h181V0H879v-209C806-46 684 14 537 14" id="aS"/><path d="M338-1490V0H158v-1490h180" id="aT"/><path d="M577 24c-279 0-473-224-473-580 0-354 195-576 474-576 218 0 287 134 324 193h14v-551h180V0H922v-173h-20C865-111 790 24 577 24zm27-161c203 0 314-172 314-421 0-247-108-413-314-413-212 0-317 181-317 413 0 235 108 421 317 421" id="aU"/><g id="i"><use transform="matrix(0.015190972222222224,0,0,0.015190972222222224,0,0)" xlink:href="#am"/><use transform="matrix(0.015190972222222224,0,0,0.015190972222222224,20.35590277777778,0)" xlink:href="#aS"/><use transform="matrix(0.015190972222222224,0,0,0.015190972222222224,38.75217013888889,0)" xlink:href="#av"/><use transform="matrix(0.015190972222222224,0,0,0.015190972222222224,46.286892361111114,0)" xlink:href="#aT"/><use transform="matrix(0.015190972222222224,0,0,0.015190972222222224,53.821614583333336,0)" xlink:href="#aU"/></g><path d="M370-1490V0H180v-1490h190" id="aV"/><path d="M65 0l393-574-370-544h210c88 136 192 297 267 435 67-142 176-302 264-435h206L661-564 1053 0H844c-94-144-206-310-287-458C484-308 366-142 273 0H65" id="aW"/><g id="j"><use transform="matrix(0.015190972222222224,0,0,0.015190972222222224,0,0)" xlink:href="#aV"/><use transform="matrix(0.015190972222222224,0,0,0.015190972222222224,8.355034722222223,0)" xlink:href="#ao"/><use transform="matrix(0.015190972222222224,0,0,0.015190972222222224,26.736111111111114,0)" xlink:href="#aU"/><use transform="matrix(0.015190972222222224,0,0,0.015190972222222224,45.785590277777786,0)" xlink:href="#an"/><use transform="matrix(0.015190972222222224,0,0,0.015190972222222224,63.22482638888889,0)" xlink:href="#aW"/></g><path d="M784 20c-382 0-662-292-662-764 0-473 280-766 662-766s660 293 660 766c0 282-99 499-260 629l192 255h-198L1049-33C969 2 880 20 784 20zm-62-486h198l156 205c112-98 183-261 183-483 0-383-209-590-475-590-268 0-477 208-477 590 0 380 209 588 477 588 54 0 106-9 154-25" id="aX"/><path d="M140 405l46-156c120 36 205 19 263-150l32-93L54-1118h197c107 313 237 620 324 950 87-331 219-637 326-950h196L606 167c-68 178-176 259-334 259-64 0-113-12-132-21" id="aY"/><g id="k"><use transform="matrix(0.015190972222222224,0,0,0.015190972222222224,0,0)" xlink:href="#aX"/><use transform="matrix(0.015190972222222224,0,0,0.015190972222222224,23.789062500000004,0)" xlink:href="#aS"/><use transform="matrix(0.015190972222222224,0,0,0.015190972222222224,42.185329861111114,0)" xlink:href="#an"/><use transform="matrix(0.015190972222222224,0,0,0.015190972222222224,60.32335069444445,0)" xlink:href="#at"/><use transform="matrix(0.015190972222222224,0,0,0.015190972222222224,72.5217013888889,0)" xlink:href="#aY"/><use transform="matrix(0.015190972222222224,0,0,0.015190972222222224,90.00651041666669,0)" xlink:href="#av"/><use transform="matrix(0.015190972222222224,0,0,0.015190972222222224,97.54123263888891,0)" xlink:href="#ao"/><use transform="matrix(0.015190972222222224,0,0,0.015190972222222224,115.9223090277778,0)" xlink:href="#aw"/></g><path d="M571 0L49-1490h339c138 427 271 775 384 1244 111-471 237-815 371-1244h337L970 0H571" id="aZ"/><path d="M633 22C291 22 81-200 81-553c0-345 210-579 537-579 292 0 525 185 525 567v84H378c7 183 109 277 260 277 105 0 184-46 216-132l272 51C1071-99 893 22 633 22zM380-669h474c-15-146-94-237-233-237-143 0-229 99-241 237" id="ba"/><path d="M628 22C291 22 81-210 81-554c0-346 210-578 547-578 265 0 455 142 497 372l-279 52c-25-116-99-188-215-188-160 0-244 139-244 341 0 200 84 341 244 341 116 0 193-74 217-195l279 51C1085-123 896 22 628 22" id="bb"/><path d="M683-1118v229H474v562c0 71 29 104 102 104 23 0 73-7 95-13l43 225C647 9 580 16 520 16 296 16 174-96 174-301v-588H20v-229h154v-266h300v266h209" id="bc"/><path d="M628 22C291 22 81-210 81-554c0-346 210-578 547-578 336 0 547 232 547 578 0 344-211 576-547 576zm0-236c160 0 242-146 242-341 0-197-82-341-242-341S387-753 387-555c0 195 81 341 241 341" id="bd"/><path d="M128 0v-1118h290v195h12c54-169 184-238 367-200v268c-27-8-86-15-130-15-138 0-239 95-239 234V0H128" id="be"/><g id="l"><use transform="matrix(0.01953125,0,0,0.01953125,0,0)" xlink:href="#aZ"/><use transform="matrix(0.01953125,0,0,0.01953125,27.421875,0)" xlink:href="#ba"/><use transform="matrix(0.01953125,0,0,0.01953125,51.25,0)" xlink:href="#bb"/><use transform="matrix(0.01953125,0,0,0.01953125,74.78515625,0)" xlink:href="#bc"/><use transform="matrix(0.01953125,0,0,0.01953125,89.04296875,0)" xlink:href="#bd"/><use transform="matrix(0.01953125,0,0,0.01953125,113.57421875,0)" xlink:href="#be"/></g><path d="M681 22C323 22 94-145 85-462h297c10 151 131 226 296 226 163 0 271-77 271-190 0-102-95-149-257-189l-164-41c-252-61-403-188-403-405 0-269 236-449 560-449 330 0 546 183 551 445H941c-11-119-106-188-259-188-156 0-244 72-244 172-3 156 226 185 373 221 250 61 445 186 445 436 0 271-213 446-575 446" id="bf"/><g id="m"><use transform="matrix(0.01953125,0,0,0.01953125,0,0)" xlink:href="#bf"/><use transform="matrix(0.01953125,0,0,0.01953125,26.19140625,0)" xlink:href="#bc"/><use transform="matrix(0.01953125,0,0,0.01953125,40.44921875,0)" xlink:href="#bd"/><use transform="matrix(0.01953125,0,0,0.01953125,64.98046875,0)" xlink:href="#be"/><use transform="matrix(0.01953125,0,0,0.01953125,80.29296875,0)" xlink:href="#ba"/></g><path d="M440-1490V0H135v-1490h305" id="bg"/><path d="M428-647V0H128v-1118h283l4 231c63-156 176-245 348-245 232 0 384 159 384 421V0H847v-659c0-139-76-222-202-222-128 0-217 86-217 234" id="bh"/><path d="M750-1118v229H516V0H217v-889H20v-229h197v-86c0-238 156-356 363-356 94 0 178 20 215 31l-54 226c-25-7-61-15-100-15-123-3-131 84-125 200h234" id="bi"/><path d="M440 22C227 22 68-92 68-313c0-250 202-322 422-343 195-21 271-24 271-105 0-95-63-149-175-149-116 0-187 57-211 129l-275-46c57-194 237-305 487-305 240 0 474 108 474 379V0H777v-155h-10C713-51 605 22 440 22zm85-211c140 0 238-93 238-211v-121c-37 26-156 42-222 51-111 16-185 59-185 149 0 87 70 132 169 132" id="bj"/><g id="n"><use transform="matrix(0.01953125,0,0,0.01953125,0,0)" xlink:href="#bg"/><use transform="matrix(0.01953125,0,0,0.01953125,11.23046875,0)" xlink:href="#bh"/><use transform="matrix(0.01953125,0,0,0.01953125,36.1328125,0)" xlink:href="#bc"/><use transform="matrix(0.01953125,0,0,0.01953125,50.390625,0)" xlink:href="#ba"/><use transform="matrix(0.01953125,0,0,0.01953125,74.21875,0)" xlink:href="#be"/><use transform="matrix(0.01953125,0,0,0.01953125,91.2890625,0)" xlink:href="#bi"/><use transform="matrix(0.01953125,0,0,0.01953125,106.42578125,0)" xlink:href="#bj"/><use transform="matrix(0.01953125,0,0,0.01953125,129.6484375,0)" xlink:href="#bb"/><use transform="matrix(0.01953125,0,0,0.01953125,153.18359375,0)" xlink:href="#ba"/></g><path d="M677 24c-213 0-288-135-325-197h-20V0H158v-1490h180v551h14c37-59 106-193 324-193 279 0 474 222 474 576 0 356-194 580-473 580zm-27-161c209 0 317-186 317-421 0-232-105-413-317-413-206 0-314 166-314 413 0 249 111 421 314 421" id="bk"/><path d="M218-607c0-325 108-727 258-974h175c-155 315-250 682-250 974 0 265 78 531 250 886H476C306-10 218-315 218-607" id="bl"/><path d="M96 279C273-86 346-350 346-607c0-292-95-659-250-974h175c150 246 258 650 258 974 0 297-91 602-258 886H96" id="bm"/><g id="o"><use transform="matrix(0.015190972222222224,0,0,0.015190972222222224,0,0)" xlink:href="#bk"/><use transform="matrix(0.015190972222222224,0,0,0.015190972222222224,19.049479166666668,0)" xlink:href="#aS"/><use transform="matrix(0.015190972222222224,0,0,0.015190972222222224,37.445746527777786,0)" xlink:href="#av"/><use transform="matrix(0.015190972222222224,0,0,0.015190972222222224,44.98046875000001,0)" xlink:href="#aT"/><use transform="matrix(0.015190972222222224,0,0,0.015190972222222224,52.51519097222223,0)" xlink:href="#aU"/><use transform="matrix(0.015190972222222224,0,0,0.015190972222222224,71.5646701388889,0)" xlink:href="#bl"/><use transform="matrix(0.015190972222222224,0,0,0.015190972222222224,82.9123263888889,0)" xlink:href="#bm"/></g><path d="M1096 418H916v-591h-14C865-111 790 24 577 24c-279 0-473-224-473-580 0-354 195-576 474-576 218 0 287 134 324 193h20v-179h174V418zM604-137c203 0 314-172 314-421 0-247-108-413-314-413-212 0-317 181-317 413 0 235 108 421 317 421" id="bn"/><g id="p"><use transform="matrix(0.015190972222222224,0,0,0.015190972222222224,0,0)" xlink:href="#bn"/><use transform="matrix(0.015190972222222224,0,0,0.015190972222222224,19.049479166666668,0)" xlink:href="#aS"/><use transform="matrix(0.015190972222222224,0,0,0.015190972222222224,37.445746527777786,0)" xlink:href="#an"/><use transform="matrix(0.015190972222222224,0,0,0.015190972222222224,55.58376736111112,0)" xlink:href="#at"/><use transform="matrix(0.015190972222222224,0,0,0.015190972222222224,67.78211805555557,0)" xlink:href="#aY"/><use transform="matrix(0.015190972222222224,0,0,0.015190972222222224,85.26692708333334,0)" xlink:href="#bl"/><use transform="matrix(0.015190972222222224,0,0,0.015190972222222224,96.61458333333334,0)" xlink:href="#bm"/></g><g id="q"><use transform="matrix(0.015190972222222224,0,0,0.015190972222222224,0,0)" xlink:href="#ao"/><use transform="matrix(0.015190972222222224,0,0,0.015190972222222224,18.38107638888889,0)" xlink:href="#as"/><use transform="matrix(0.015190972222222224,0,0,0.015190972222222224,35.85069444444444,0)" xlink:href="#ar"/><use transform="matrix(0.015190972222222224,0,0,0.015190972222222224,63.103298611111114,0)" xlink:href="#an"/><use transform="matrix(0.015190972222222224,0,0,0.015190972222222224,81.24131944444446,0)" xlink:href="#bl"/><use transform="matrix(0.015190972222222224,0,0,0.015190972222222224,92.58897569444446,0)" xlink:href="#bm"/></g><path d="M49 0l509-1490h400L1480 0h-339l-115-346H497L386 0H49zm524-585h374c-75-213-124-402-192-666-66 268-110 453-182 666" id="bo"/><path d="M135 0v-1490h340l471 754c59 97 122 210 187 365-32-387-14-721-19-1119h312V0h-341C855-382 627-689 427-1113c32 420 16 695 20 1113H135" id="bp"/><path d="M789 20C394 20 94-260 94-744c0-487 300-766 695-766s695 279 695 766c0 485-300 764-695 764zm0-271c231 0 385-174 385-493 0-321-154-495-385-495s-385 175-385 495c0 319 154 493 385 493" id="bq"/><path d="M601 0v-560L49-1490h357l252 464c38 68 67 130 97 208 96-243 225-446 337-672h356L905-560V0H601" id="br"/><g id="r"><use transform="matrix(0.015190972222222224,0,0,0.015190972222222224,0,0)" xlink:href="#bo"/><use transform="matrix(0.015190972222222224,0,0,0.015190972222222224,23.22699652777778,0)" xlink:href="#bp"/><use transform="matrix(0.015190972222222224,0,0,0.015190972222222224,46.94010416666667,0)" xlink:href="#bp"/><use transform="matrix(0.015190972222222224,0,0,0.015190972222222224,70.65321180555557,0)" xlink:href="#bq"/><use transform="matrix(0.015190972222222224,0,0,0.015190972222222224,93.28776041666669,0)" xlink:href="#br"/></g><path d="M135 0v-1490h305v602h649v-602h306V0h-306v-635H440V0H135" id="bs"/><path d="M449 0L49-1490h333c89 395 194 758 253 1185 65-426 176-790 269-1185h317c93 394 201 758 268 1181 60-425 164-788 253-1181h334L1675 0h-348c-90-376-204-711-266-1118C1004-714 886-373 798 0H449" id="bt"/><g id="s"><use transform="matrix(0.015190972222222224,0,0,0.015190972222222224,0,0)" xlink:href="#bs"/><use transform="matrix(0.015190972222222224,0,0,0.015190972222222224,23.242187500000004,0)" xlink:href="#bp"/><use transform="matrix(0.015190972222222224,0,0,0.015190972222222224,46.9552951388889,0)" xlink:href="#bf"/><use transform="matrix(0.015190972222222224,0,0,0.015190972222222224,67.3263888888889,0)" xlink:href="#bt"/></g><path d="M135 0v-1490h980v253H440v416h609v249H440V0H135" id="bu"/><g id="t"><use transform="matrix(0.015190972222222224,0,0,0.015190972222222224,0,0)" xlink:href="#bu"/><use transform="matrix(0.015190972222222224,0,0,0.015190972222222224,15.43402777777778,0)" xlink:href="#bo"/><use transform="matrix(0.015190972222222224,0,0,0.015190972222222224,38.66102430555556,0)" xlink:href="#bg"/><use transform="matrix(0.015190972222222224,0,0,0.015190972222222224,47.395833333333336,0)" xlink:href="#bf"/><use transform="matrix(0.015190972222222224,0,0,0.015190972222222224,67.76692708333334,0)" xlink:href="#bf"/></g><path d="M818-733v240H140v-240h678" id="bv"/><use transform="matrix(0.015190972222222224,0,0,0.015190972222222224,0,0)" xlink:href="#bv" id="u"/><path d="M428-1490V0H128v-1490h300" id="bw"/><g id="v"><use transform="matrix(0.015190972222222224,0,0,0.015190972222222224,0,0)" xlink:href="#bu"/><use transform="matrix(0.015190972222222224,0,0,0.015190972222222224,18.259548611111114,0)" xlink:href="#bw"/><use transform="matrix(0.015190972222222224,0,0,0.015190972222222224,26.69053819444445,0)" xlink:href="#bj"/><use transform="matrix(0.015190972222222224,0,0,0.015190972222222224,44.75260416666667,0)" xlink:href="#bc"/></g><path d="M180 0v-1490h190v1322h690V0H180" id="bx"/><g id="w"><use transform="matrix(0.01193576388888889,0,0,0.01193576388888889,0,0)" xlink:href="#bx"/><use transform="matrix(0.01193576388888889,0,0,0.01193576388888889,13.821614583333334,0)" xlink:href="#az"/><use transform="matrix(0.01193576388888889,0,0,0.01193576388888889,28.717447916666668,0)" xlink:href="#as"/><use transform="matrix(0.01193576388888889,0,0,0.01193576388888889,42.44357638888889,0)" xlink:href="#aU"/></g><path d="M180 0v-1490h510c348 0 508 209 508 474 0 266-160 477-507 477H370V0H180zm190-706h312c236 0 327-133 327-310 0-176-91-307-329-307H370v617" id="by"/><path d="M645 0H180v-1490h484c435 0 692 280 692 742 0 466-257 748-711 748zM370-168h263c363 0 539-218 539-580 0-358-176-574-521-574H370v1154" id="bz"/><g id="x"><use transform="matrix(0.01193576388888889,0,0,0.01193576388888889,0,0)" xlink:href="#by"/><use transform="matrix(0.01193576388888889,0,0,0.01193576388888889,15.611979166666668,0)" xlink:href="#bz"/><use transform="matrix(0.01193576388888889,0,0,0.01193576388888889,33.25303819444444,0)" xlink:href="#ax"/></g><path d="M598-1118v154H368v674c0 100 37 144 132 144 23 0 62-6 92-12L629-6c-37 13-88 20-134 20-193 0-307-107-307-290v-688H20v-154h168v-266h180v266h230" id="bA"/><path d="M538 24C308 24 148-78 108-271l171-41c32 123 123 178 257 178 156 0 256-77 256-169 0-77-54-128-164-154l-186-44c-203-48-300-148-300-305 0-192 176-326 414-326 230 0 351 112 402 269l-163 42c-31-80-94-158-238-158-133 0-233 69-233 162 0 83 57 129 188 160l169 40c203 48 298 149 298 302 0 196-179 339-441 339" id="bB"/><g id="y"><use transform="matrix(0.01193576388888889,0,0,0.01193576388888889,0,0)" xlink:href="#bz"/><use transform="matrix(0.01193576388888889,0,0,0.01193576388888889,17.64105902777778,0)" xlink:href="#az"/><use transform="matrix(0.01193576388888889,0,0,0.01193576388888889,32.298177083333336,0)" xlink:href="#ap"/><use transform="matrix(0.01193576388888889,0,0,0.01193576388888889,46.263020833333336,0)" xlink:href="#aS"/><use transform="matrix(0.01193576388888889,0,0,0.01193576388888889,60.717230902777786,0)" xlink:href="#ar"/><use transform="matrix(0.01193576388888889,0,0,0.01193576388888889,82.12999131944446,0)" xlink:href="#an"/><use transform="matrix(0.01193576388888889,0,0,0.01193576388888889,96.38129340277779,0)" xlink:href="#ao"/><use transform="matrix(0.01193576388888889,0,0,0.01193576388888889,110.82356770833334,0)" xlink:href="#bA"/><use transform="matrix(0.01193576388888889,0,0,0.01193576388888889,118.58181423611111,0)" xlink:href="#bB"/></g><path d="M180 0v-1490h908v168H370v486h669v168H370v500h727V0H180" id="bC"/><g id="z"><use transform="matrix(0.01193576388888889,0,0,0.01193576388888889,0,0)" xlink:href="#bC"/><use transform="matrix(0.01193576388888889,0,0,0.01193576388888889,14.692925347222223,0)" xlink:href="#aW"/><use transform="matrix(0.01193576388888889,0,0,0.01193576388888889,28.514539930555557,0)" xlink:href="#bA"/><use transform="matrix(0.01193576388888889,0,0,0.01193576388888889,36.511501736111114,0)" xlink:href="#at"/><use transform="matrix(0.01193576388888889,0,0,0.01193576388888889,45.71397569444445,0)" xlink:href="#as"/><use transform="matrix(0.01193576388888889,0,0,0.01193576388888889,59.44010416666667,0)" xlink:href="#ap"/><use transform="matrix(0.01193576388888889,0,0,0.01193576388888889,73.40494791666667,0)" xlink:href="#bA"/></g><path d="M98-1322v-168h1126v168H757V0H567v-1322H98" id="bD"/><g id="A"><use transform="matrix(0.01193576388888889,0,0,0.01193576388888889,0,0)" xlink:href="#bD"/><use transform="matrix(0.01193576388888889,0,0,0.01193576388888889,13.86935763888889,0)" xlink:href="#an"/><use transform="matrix(0.01193576388888889,0,0,0.01193576388888889,27.571614583333336,0)" xlink:href="#aW"/><use transform="matrix(0.01193576388888889,0,0,0.01193576388888889,41.39322916666667,0)" xlink:href="#bA"/></g><path d="M678-1118v154H420V0H240v-964H20v-154h220v-149c0-194 155-293 318-293 85 0 141 18 168 30l-50 154c-19-6-47-17-97-17-111 0-159 58-159 166v109h258" id="bE"/><path d="M126 0v-134l627-806v-11H146v-167h839v143L376-178v11h629V0H126" id="bF"/><g id="B"><use transform="matrix(0.01193576388888889,0,0,0.01193576388888889,0,0)" xlink:href="#bl"/><use transform="matrix(0.01193576388888889,0,0,0.01193576388888889,8.916015625,0)" xlink:href="#bE"/><use transform="matrix(0.01193576388888889,0,0,0.01193576388888889,17.96332465277778,0)" xlink:href="#av"/><use transform="matrix(0.01193576388888889,0,0,0.01193576388888889,23.883463541666668,0)" xlink:href="#bA"/><use transform="matrix(0.01193576388888889,0,0,0.01193576388888889,31.880425347222225,0)" xlink:href="#bF"/><use transform="matrix(0.01193576388888889,0,0,0.01193576388888889,45.37977430555556,0)" xlink:href="#bm"/></g><path d="M783 20c-382 0-661-292-661-764 0-473 279-766 661-766 302 0 548 182 601 489h-190c-42-204-217-313-411-313-268 0-476 208-476 590 0 381 209 588 476 588 195 0 369-110 411-313h190c-52 303-296 489-601 489" id="bG"/><g id="C"><use transform="matrix(0.01193576388888889,0,0,0.01193576388888889,0,0)" xlink:href="#bG"/><use transform="matrix(0.01193576388888889,0,0,0.01193576388888889,17.85590277777778,0)" xlink:href="#aT"/><use transform="matrix(0.01193576388888889,0,0,0.01193576388888889,23.776041666666668,0)" xlink:href="#an"/><use transform="matrix(0.01193576388888889,0,0,0.01193576388888889,38.26605902777778,0)" xlink:href="#as"/><use transform="matrix(0.01193576388888889,0,0,0.01193576388888889,51.99218750000001,0)" xlink:href="#ao"/></g><g id="D"><use transform="matrix(0.01193576388888889,0,0,0.01193576388888889,0,0)" xlink:href="#bl"/><use transform="matrix(0.01193576388888889,0,0,0.01193576388888889,8.916015625,0)" xlink:href="#at"/><use transform="matrix(0.01193576388888889,0,0,0.01193576388888889,17.712673611111114,0)" xlink:href="#an"/><use transform="matrix(0.01193576388888889,0,0,0.01193576388888889,31.963975694444454,0)" xlink:href="#aw"/><use transform="matrix(0.01193576388888889,0,0,0.01193576388888889,46.9552951388889,0)" xlink:href="#an"/><use transform="matrix(0.01193576388888889,0,0,0.01193576388888889,60.65755208333335,0)" xlink:href="#aW"/><use transform="matrix(0.01193576388888889,0,0,0.01193576388888889,74.00173611111113,0)" xlink:href="#bm"/></g><g id="E"><use transform="matrix(0.01193576388888889,0,0,0.01193576388888889,0,0)" xlink:href="#bG"/><use transform="matrix(0.01193576388888889,0,0,0.01193576388888889,17.85590277777778,0)" xlink:href="#aq"/><use transform="matrix(0.01193576388888889,0,0,0.01193576388888889,32.31011284722223,0)" xlink:href="#aS"/><use transform="matrix(0.01193576388888889,0,0,0.01193576388888889,46.76432291666667,0)" xlink:href="#ao"/><use transform="matrix(0.01193576388888889,0,0,0.01193576388888889,61.20659722222223,0)" xlink:href="#au"/></g><path d="M180 0v-1490h510c348 0 508 194 508 460 0 198-88 351-276 417L1256 0h-220L726-579c-117 2-238 0-356 1V0H180zm190-747h312c235 0 327-108 327-283 0-177-92-293-329-293H370v576" id="bH"/><path d="M481 0L54-1118h197c107 314 236 620 325 951 87-331 217-637 324-951h197L670 0H481" id="bI"/><path d="M657 26c-323 0-524-166-541-416h195c15 169 171 246 346 246 202 0 356-106 356-265 5-203-294-238-475-293-239-73-380-191-380-389 0-252 224-419 512-419 294 0 499 171 508 396H992c-17-145-151-228-328-228-193 0-321 102-321 242 0 156 175 211 284 241l149 41c160 44 422 134 422 412 0 244-197 432-541 432" id="bJ"/><path d="M158 418v-1536h174v179h20c37-59 106-193 324-193 279 0 474 222 474 576 0 356-194 580-473 580-213 0-288-135-325-197h-14v591H158zm492-555c209 0 317-186 317-421 0-232-105-413-317-413-206 0-314 166-314 413 0 249 111 421 314 421" id="bK"/><g id="F"><use transform="matrix(0.01193576388888889,0,0,0.01193576388888889,0,0)" xlink:href="#bl"/><use transform="matrix(0.01193576388888889,0,0,0.01193576388888889,8.916015625,0)" xlink:href="#bH"/><use transform="matrix(0.01193576388888889,0,0,0.01193576388888889,24.289279513888893,0)" xlink:href="#an"/><use transform="matrix(0.01193576388888889,0,0,0.01193576388888889,38.54058159722223,0)" xlink:href="#ap"/><use transform="matrix(0.01193576388888889,0,0,0.01193576388888889,52.50542534722223,0)" xlink:href="#aS"/><use transform="matrix(0.01193576388888889,0,0,0.01193576388888889,66.95963541666667,0)" xlink:href="#at"/><use transform="matrix(0.01193576388888889,0,0,0.01193576388888889,76.162109375,0)" xlink:href="#bB"/><use transform="matrix(0.01193576388888889,0,0,0.01193576388888889,89.06467013888889,0)" xlink:href="#av"/><use transform="matrix(0.01193576388888889,0,0,0.01193576388888889,94.98480902777777,0)" xlink:href="#bI"/><use transform="matrix(0.01193576388888889,0,0,0.01193576388888889,108.24544270833331,0)" xlink:href="#an"/><use transform="matrix(0.01193576388888889,0,0,0.01193576388888889,122.49674479166666,0)" xlink:href="#bG"/><use transform="matrix(0.01193576388888889,0,0,0.01193576388888889,140.35264756944443,0)" xlink:href="#aq"/><use transform="matrix(0.01193576388888889,0,0,0.01193576388888889,154.80685763888889,0)" xlink:href="#as"/><use transform="matrix(0.01193576388888889,0,0,0.01193576388888889,168.53298611111111,0)" xlink:href="#at"/><use transform="matrix(0.01193576388888889,0,0,0.01193576388888889,177.73546006944446,0)" xlink:href="#as"/><use transform="matrix(0.01193576388888889,0,0,0.01193576388888889,191.46158854166669,0)" xlink:href="#ap"/><use transform="matrix(0.01193576388888889,0,0,0.01193576388888889,205.42643229166669,0)" xlink:href="#bA"/><use transform="matrix(0.01193576388888889,0,0,0.01193576388888889,213.18467881944446,0)" xlink:href="#an"/><use transform="matrix(0.01193576388888889,0,0,0.01193576388888889,227.4359809027778,0)" xlink:href="#at"/><use transform="matrix(0.01193576388888889,0,0,0.01193576388888889,235.25390625000003,0)" xlink:href="#bD"/><use transform="matrix(0.01193576388888889,0,0,0.01193576388888889,249.1232638888889,0)" xlink:href="#an"/><use transform="matrix(0.01193576388888889,0,0,0.01193576388888889,262.82552083333337,0)" xlink:href="#aW"/><use transform="matrix(0.01193576388888889,0,0,0.01193576388888889,276.6471354166667,0)" xlink:href="#bA"/><use transform="matrix(0.01193576388888889,0,0,0.01193576388888889,284.64409722222223,0)" xlink:href="#bJ"/><use transform="matrix(0.01193576388888889,0,0,0.01193576388888889,300.32769097222223,0)" xlink:href="#bK"/><use transform="matrix(0.01193576388888889,0,0,0.01193576388888889,315.2951388888889,0)" xlink:href="#aT"/><use transform="matrix(0.01193576388888889,0,0,0.01193576388888889,321.2152777777778,0)" xlink:href="#av"/><use transform="matrix(0.01193576388888889,0,0,0.01193576388888889,327.13541666666674,0)" xlink:href="#bA"/><use transform="matrix(0.01193576388888889,0,0,0.01193576388888889,334.5355902777778,0)" xlink:href="#bA"/><use transform="matrix(0.01193576388888889,0,0,0.01193576388888889,342.2938368055556,0)" xlink:href="#an"/><use transform="matrix(0.01193576388888889,0,0,0.01193576388888889,356.5451388888889,0)" xlink:href="#at"/><use transform="matrix(0.01193576388888889,0,0,0.01193576388888889,365.74761284722223,0)" xlink:href="#bm"/></g><g id="G"><use transform="matrix(0.01193576388888889,0,0,0.01193576388888889,0,0)" xlink:href="#bC"/><use transform="matrix(0.01193576388888889,0,0,0.01193576388888889,14.692925347222223,0)" xlink:href="#ar"/><use transform="matrix(0.01193576388888889,0,0,0.01193576388888889,36.10568576388889,0)" xlink:href="#bk"/><use transform="matrix(0.01193576388888889,0,0,0.01193576388888889,51.07313368055556,0)" xlink:href="#an"/><use transform="matrix(0.01193576388888889,0,0,0.01193576388888889,65.32443576388889,0)" xlink:href="#aU"/><use transform="matrix(0.01193576388888889,0,0,0.01193576388888889,80.29188368055556,0)" xlink:href="#aU"/><use transform="matrix(0.01193576388888889,0,0,0.01193576388888889,95.25933159722223,0)" xlink:href="#av"/><use transform="matrix(0.01193576388888889,0,0,0.01193576388888889,101.17947048611111,0)" xlink:href="#ao"/><use transform="matrix(0.01193576388888889,0,0,0.01193576388888889,115.62174479166667,0)" xlink:href="#aw"/></g><path d="M180 0v-1490h270l367 940c28 72 75 218 110 339 35-117 81-264 110-339l362-940h271V0h-187c2-448-5-837 7-1287-157 497-311 829-483 1287H842C666-458 514-784 354-1284c12 438 5 843 7 1284H180" id="bL"/><g id="H"><use transform="matrix(0.01193576388888889,0,0,0.01193576388888889,0,0)" xlink:href="#bL"/><use transform="matrix(0.01193576388888889,0,0,0.01193576388888889,22.081163194444446,0)" xlink:href="#as"/><use transform="matrix(0.01193576388888889,0,0,0.01193576388888889,35.80729166666667,0)" xlink:href="#ao"/><use transform="matrix(0.01193576388888889,0,0,0.01193576388888889,50.24956597222223,0)" xlink:href="#as"/><use transform="matrix(0.01193576388888889,0,0,0.01193576388888889,63.97569444444445,0)" xlink:href="#aw"/><use transform="matrix(0.01193576388888889,0,0,0.01193576388888889,78.9670138888889,0)" xlink:href="#an"/><use transform="matrix(0.01193576388888889,0,0,0.01193576388888889,93.21831597222223,0)" xlink:href="#at"/></g><path d="M798-719v166H144v-166h654" id="bM"/><path d="M646 20c-249 0-524-159-524-708 0-524 209-822 547-822 250 0 431 161 467 395H950c-33-129-126-227-281-227-229 0-367 208-367 566h12c80-124 212-198 367-198 255 0 467 205 467 493 0 278-198 501-502 501zm0-167c179 0 318-148 318-334 0-182-133-328-313-328-181 0-322 156-322 330 0 176 134 332 317 332" id="bN"/><path d="M154 0v-137l495-537c165-179 249-281 249-418 0-156-121-253-280-253-170 0-278 110-278 278H158c0-264 200-443 465-443 266 0 455 183 455 416 0 161-73 288-336 568L416-179v12h687V0H154" id="bO"/><g id="I"><use transform="matrix(0.01193576388888889,0,0,0.01193576388888889,0,0)" xlink:href="#bl"/><use transform="matrix(0.01193576388888889,0,0,0.01193576388888889,8.916015625,0)" xlink:href="#as"/><use transform="matrix(0.01193576388888889,0,0,0.01193576388888889,22.64214409722222,0)" xlink:href="#aT"/><use transform="matrix(0.01193576388888889,0,0,0.01193576388888889,28.562282986111114,0)" xlink:href="#aT"/><use transform="matrix(0.01193576388888889,0,0,0.01193576388888889,34.482421875,0)" xlink:href="#bM"/><use transform="matrix(0.01193576388888889,0,0,0.01193576388888889,45.725911458333336,0)" xlink:href="#bL"/><use transform="matrix(0.01193576388888889,0,0,0.01193576388888889,67.80707465277779,0)" xlink:href="#av"/><use transform="matrix(0.01193576388888889,0,0,0.01193576388888889,73.72721354166667,0)" xlink:href="#ao"/><use transform="matrix(0.01193576388888889,0,0,0.01193576388888889,88.16948784722223,0)" xlink:href="#av"/><use transform="matrix(0.01193576388888889,0,0,0.01193576388888889,94.08962673611111,0)" xlink:href="#bx"/><use transform="matrix(0.01193576388888889,0,0,0.01193576388888889,107.91124131944446,0)" xlink:href="#bL"/><use transform="matrix(0.01193576388888889,0,0,0.01193576388888889,129.99240451388889,0)" xlink:href="#bM"/><use transform="matrix(0.01193576388888889,0,0,0.01193576388888889,141.23589409722223,0)" xlink:href="#bx"/><use transform="matrix(0.01193576388888889,0,0,0.01193576388888889,155.05750868055557,0)" xlink:href="#bN"/><use transform="matrix(0.01193576388888889,0,0,0.01193576388888889,170.21592881944446,0)" xlink:href="#bM"/><use transform="matrix(0.01193576388888889,0,0,0.01193576388888889,181.4594184027778,0)" xlink:href="#bI"/><use transform="matrix(0.01193576388888889,0,0,0.01193576388888889,195.1974826388889,0)" xlink:href="#bO"/><use transform="matrix(0.01193576388888889,0,0,0.01193576388888889,210.10525173611111,0)" xlink:href="#bm"/></g><path d="M-41 0l788-1490h220L1268 0h-192l-80-416H383L169 0H-41zm509-582h497c-56-293-77-375-126-756-162 359-224 468-371 756" id="bP"/><path d="M492 24C248 24 94-147 94-425c0-352 212-707 569-707 222 0 274 136 303 198h12l92-556h181L1004 0H829l30-173h-19C792-103 700 24 492 24zm32-161c268 0 407-295 407-549 0-175-80-285-247-285-266 0-408 283-408 536 0 174 79 298 248 298" id="bQ"/><g id="J"><use transform="matrix(0.013020833333333334,0,0,0.013020833333333334,0,0)" xlink:href="#bP"/><use transform="matrix(0.013020833333333334,0,0,0.013020833333333334,18.3984375,0)" xlink:href="#bQ"/><use transform="matrix(0.013020833333333334,0,0,0.013020833333333334,34.739583333333336,0)" xlink:href="#bQ"/></g><path d="M524-1490L277 0H87l247-1490h190" id="bR"/><path d="M356-664L245 0H65l186-1118h173l-32 197c96-152 219-211 366-211 232 0 366 145 319 428L960 0H779l117-701c29-174-48-269-198-269-165 0-310 115-342 306" id="bS"/><path d="M66 0l185-1118h180L246 0H66zm307-1301c-71 0-117-55-106-119s74-119 145-119c65 0 117 50 106 118s-78 120-145 120" id="bT"/><path d="M528 24C258 24 94-156 94-433c0-354 228-699 603-699 222 0 381 120 410 314l-176 39c-14-114-95-192-238-192-272 0-419 288-419 536 0 167 76 298 258 298 155 0 277-90 329-211l166 58C935-93 745 24 528 24" id="bU"/><path d="M535 24C259 24 94-144 94-427c0-392 272-715 610-715 216 0 356 119 356 305 0 244-237 344-790 350-18 199 49 349 276 352 142 0 260-66 317-173l167 47C947-85 756 24 535 24zM294-623c447-4 586-57 586-218 0-85-78-141-194-141-220 0-342 177-392 359" id="bV"/><path d="M451 24C217 22 71-78 61-277l174-29c11 123 90 172 219 172 161 0 280-83 297-181 11-71-30-117-135-143l-179-44c-195-48-280-153-253-316 31-186 223-314 455-314 233 4 337 107 366 275l-165 30c-18-80-65-152-204-152-138 0-256 75-272 174-13 77 32 118 158 149l162 40c195 48 278 154 252 313C904-113 708 24 451 24" id="bW"/><path d="M-23 359l182-567h206L115 359H-23" id="bX"/><g id="K"><use transform="matrix(0.013020833333333334,0,0,0.013020833333333334,0,0)" xlink:href="#bR"/><use transform="matrix(0.013020833333333334,0,0,0.013020833333333334,7.161458333333334,0)" xlink:href="#bS"/><use transform="matrix(0.013020833333333334,0,0,0.013020833333333334,22.9296875,0)" xlink:href="#bQ"/><use transform="matrix(0.013020833333333334,0,0,0.013020833333333334,39.270833333333336,0)" xlink:href="#bT"/><use transform="matrix(0.013020833333333334,0,0,0.013020833333333334,45.7421875,0)" xlink:href="#bU"/><use transform="matrix(0.013020833333333334,0,0,0.013020833333333334,60.989583333333336,0)" xlink:href="#bV"/><use transform="matrix(0.013020833333333334,0,0,0.013020833333333334,76.34114583333334,0)" xlink:href="#bW"/><use transform="matrix(0.013020833333333334,0,0,0.013020833333333334,90.40364583333334,0)" xlink:href="#bX"/></g><path d="M585 0H87l247-1490h460c436 0 670 281 593 744C1309-277 1035 0 585 0zM305-168h262c366 0 577-221 636-580s-82-574-426-574H496" id="bY"/><path d="M528 24C258 24 94-156 94-433c0-355 229-699 603-699 270 0 436 178 436 458 0 359-234 698-605 698zm4-161c275 0 420-287 420-533 0-170-77-301-260-301-271 0-418 288-418 536 0 168 77 298 258 298" id="bZ"/><path d="M443 14C219 14 87-123 134-408l117-710h180L317-423c-28 171 49 275 206 275s300-105 332-300l110-670h181L961 0H787l35-209C722-47 590 14 443 14" id="ca"/><path d="M65 0l186-1118h175l-31 195c80-148 212-215 337-215 153 0 236 96 255 228 75-143 223-228 382-228 199 0 341 131 298 390L1543 0h-181l126-756c27-162-65-218-177-218-160 0-274 111-297 250L894 0H714l128-773c21-127-57-201-174-201-136 0-277 97-307 277L245 0H65" id="cb"/><path d="M691-1118l-25 154H437L325-290c-17 103 16 144 108 144 23 0 63-6 94-12L538-6c-36 12-87 20-136 20-196 0-290-109-260-290l114-688H88l25-154h169l44-266h180l-44 266h229" id="cc"/><g id="L"><use transform="matrix(0.013020833333333334,0,0,0.013020833333333334,0,0)" xlink:href="#bY"/><use transform="matrix(0.013020833333333334,0,0,0.013020833333333334,19.231770833333336,0)" xlink:href="#bZ"/><use transform="matrix(0.013020833333333334,0,0,0.013020833333333334,35.234375,0)" xlink:href="#bU"/><use transform="matrix(0.013020833333333334,0,0,0.013020833333333334,50.481770833333336,0)" xlink:href="#ca"/><use transform="matrix(0.013020833333333334,0,0,0.013020833333333334,66.26302083333334,0)" xlink:href="#cb"/><use transform="matrix(0.013020833333333334,0,0,0.013020833333333334,89.62239583333334,0)" xlink:href="#bV"/><use transform="matrix(0.013020833333333334,0,0,0.013020833333333334,104.97395833333334,0)" xlink:href="#bS"/><use transform="matrix(0.013020833333333334,0,0,0.013020833333333334,120.7421875,0)" xlink:href="#cc"/><use transform="matrix(0.013020833333333334,0,0,0.013020833333333334,129.23177083333334,0)" xlink:href="#bW"/></g><path d="M481 24C202 24 45-202 104-557s293-575 571-575c216 0 263 132 291 193h15l29-179h181L1006 0H831l28-173h-21C788-107 693 24 481 24zm56-161c204 0 342-174 383-422s-41-412-245-412c-215 0-350 183-388 412-39 235 39 422 250 422" id="cd"/><g id="M"><use transform="matrix(0.013020833333333334,0,0,0.013020833333333334,0,0)" xlink:href="#cd"/><use transform="matrix(0.013020833333333334,0,0,0.013020833333333334,16.3671875,0)" xlink:href="#bS"/><use transform="matrix(0.013020833333333334,0,0,0.013020833333333334,32.13541666666667,0)" xlink:href="#bQ"/></g><path d="M356-670L245 0H65l247-1490h180l-94 565c97-150 219-207 362-207 226 0 365 139 318 422L960 0H779l116-695c29-174-53-275-208-275-158 0-299 107-331 300" id="ce"/><path d="M66 0l185-1118h174l-28 172h12c78-136 219-209 411-185l-30 181c-211-47-398 67-428 250L246 0H66" id="cf"/><g id="N"><use transform="matrix(0.013020833333333334,0,0,0.013020833333333334,0,0)" xlink:href="#cc"/><use transform="matrix(0.013020833333333334,0,0,0.013020833333333334,8.75,0)" xlink:href="#ce"/><use transform="matrix(0.013020833333333334,0,0,0.013020833333333334,24.518229166666668,0)" xlink:href="#bV"/><use transform="matrix(0.013020833333333334,0,0,0.013020833333333334,39.86979166666667,0)" xlink:href="#bT"/><use transform="matrix(0.013020833333333334,0,0,0.013020833333333334,46.341145833333336,0)" xlink:href="#cf"/></g><path d="M87 0l247-1490h908l-28 167H496l-80 487h669l-28 167H387l-83 502h727L1004 0H87" id="cg"/><path d="M592 24c-216 0-276-130-305-197h-18L239 0H65l247-1490h180l-92 551h15c51-63 134-193 344-193 246 0 401 170 401 447 0 348-211 709-568 709zm-24-161c267 0 411-296 411-543 0-170-78-291-250-291-269 0-405 284-405 542 0 177 81 292 244 292" id="ch"/><path d="M456 442C197 442 73 327 25 209l155-84c33 60 86 160 280 160 184 0 332-89 363-272l37-218-16 4C793-134 707-18 498-18 260-18 96-170 96-443c0-341 216-689 568-689 222 0 274 139 301 198l21-5 30-179h175L999 35c-48 288-275 407-543 407zm75-620c274 0 401-267 401-512 0-170-80-281-247-281-260 0-408 269-408 518 0 167 83 275 254 275" id="ci"/><g id="O"><use transform="matrix(0.013020833333333334,0,0,0.013020833333333334,0,0)" xlink:href="#cg"/><use transform="matrix(0.013020833333333334,0,0,0.013020833333333334,16.041666666666668,0)" xlink:href="#cb"/><use transform="matrix(0.013020833333333334,0,0,0.013020833333333334,39.40104166666667,0)" xlink:href="#ch"/><use transform="matrix(0.013020833333333334,0,0,0.013020833333333334,55.7421875,0)" xlink:href="#bV"/><use transform="matrix(0.013020833333333334,0,0,0.013020833333333334,71.09375,0)" xlink:href="#bQ"/><use transform="matrix(0.013020833333333334,0,0,0.013020833333333334,87.43489583333334,0)" xlink:href="#bQ"/><use transform="matrix(0.013020833333333334,0,0,0.013020833333333334,103.77604166666669,0)" xlink:href="#bT"/><use transform="matrix(0.013020833333333334,0,0,0.013020833333333334,110.24739583333336,0)" xlink:href="#bS"/><use transform="matrix(0.013020833333333334,0,0,0.013020833333333334,126.01562500000003,0)" xlink:href="#ci"/><use transform="matrix(0.013020833333333334,0,0,0.013020833333333334,142.36979166666669,0)" xlink:href="#bW"/></g><g id="P"><use transform="matrix(0.013020833333333334,0,0,0.013020833333333334,0,0)" xlink:href="#cc"/><use transform="matrix(0.013020833333333334,0,0,0.013020833333333334,8.489583333333334,0)" xlink:href="#bZ"/></g><g id="Q"><use transform="matrix(0.013020833333333334,0,0,0.013020833333333334,0,0)" xlink:href="#cc"/><use transform="matrix(0.013020833333333334,0,0,0.013020833333333334,8.75,0)" xlink:href="#ce"/><use transform="matrix(0.013020833333333334,0,0,0.013020833333333334,24.518229166666668,0)" xlink:href="#bV"/></g><path d="M-28 0l489-573-281-545h202c65 135 144 295 195 434 91-140 226-300 336-434h214L662-564 960 0H756c-70-143-156-309-211-458C447-309 301-142 185 0H-28" id="cj"/><g id="R"><use transform="matrix(0.013020833333333334,0,0,0.013020833333333334,0,0)" xlink:href="#bR"/><use transform="matrix(0.013020833333333334,0,0,0.013020833333333334,7.161458333333334,0)" xlink:href="#bS"/><use transform="matrix(0.013020833333333334,0,0,0.013020833333333334,22.9296875,0)" xlink:href="#bQ"/><use transform="matrix(0.013020833333333334,0,0,0.013020833333333334,39.270833333333336,0)" xlink:href="#bV"/><use transform="matrix(0.013020833333333334,0,0,0.013020833333333334,54.0234375,0)" xlink:href="#cj"/></g><g id="S"><use transform="matrix(0.015190972222222224,0,0,0.015190972222222224,0,0)" xlink:href="#bG"/><use transform="matrix(0.015190972222222224,0,0,0.015190972222222224,22.725694444444446,0)" xlink:href="#as"/><use transform="matrix(0.015190972222222224,0,0,0.015190972222222224,40.1953125,0)" xlink:href="#aT"/><use transform="matrix(0.015190972222222224,0,0,0.015190972222222224,47.73003472222222,0)" xlink:href="#ap"/><use transform="matrix(0.015190972222222224,0,0,0.015190972222222224,65.50347222222223,0)" xlink:href="#aS"/><use transform="matrix(0.015190972222222224,0,0,0.015190972222222224,83.89973958333334,0)" xlink:href="#aT"/><use transform="matrix(0.015190972222222224,0,0,0.015190972222222224,91.43446180555557,0)" xlink:href="#as"/><use transform="matrix(0.015190972222222224,0,0,0.015190972222222224,108.90407986111113,0)" xlink:href="#bA"/><use transform="matrix(0.015190972222222224,0,0,0.015190972222222224,118.77821180555557,0)" xlink:href="#an"/></g><path d="M808-1490L561 0H375l218-1314h-10l-405 267 34-204 364-239h232" id="ck"/><path d="M210 13C133 13 75-52 89-134c12-70 77-122 143-122 81 0 133 67 122 143-10 69-73 126-144 126" id="cl"/><g id="T"><use transform="matrix(0.015190972222222224,0,0,0.015190972222222224,0,0)" xlink:href="#ck"/><use transform="matrix(0.015190972222222224,0,0,0.015190972222222224,12.669270833333334,0)" xlink:href="#cl"/></g><path d="M87 0l247-1490h522c311 0 433 182 398 403-29 183-158 272-300 309v10c139 9 280 144 242 380C1160-164 988 0 639 0H87zm218-167h345c236 0 346-113 367-247 23-147-78-262-262-262H390zm111-669h323c157 0 307-105 334-265 21-124-42-222-237-222H497" id="cm"/><path d="M492-1490L245 0H65l247-1490h180" id="cn"/><g id="U"><use transform="matrix(0.015190972222222224,0,0,0.015190972222222224,0,0)" xlink:href="#cm"/><use transform="matrix(0.015190972222222224,0,0,0.015190972222222224,20.35590277777778,0)" xlink:href="#ca"/><use transform="matrix(0.015190972222222224,0,0,0.015190972222222224,38.767361111111114,0)" xlink:href="#bT"/><use transform="matrix(0.015190972222222224,0,0,0.015190972222222224,46.31727430555556,0)" xlink:href="#cn"/><use transform="matrix(0.015190972222222224,0,0,0.015190972222222224,53.85199652777778,0)" xlink:href="#bQ"/></g><path d="M226-1323l28-167h1126l-28 167H885L666 0H476l219-1323H226" id="co"/><g id="V"><use transform="matrix(0.015190972222222224,0,0,0.015190972222222224,0,0)" xlink:href="#co"/><use transform="matrix(0.015190972222222224,0,0,0.015190972222222224,20.112847222222225,0)" xlink:href="#bT"/><use transform="matrix(0.015190972222222224,0,0,0.015190972222222224,27.66276041666667,0)" xlink:href="#cb"/><use transform="matrix(0.015190972222222224,0,0,0.015190972222222224,54.91536458333334,0)" xlink:href="#bV"/></g><path d="M61 0l23-137 583-537c198-182 297-283 319-421 25-157-68-250-224-250-169 0-311 109-339 278H242c44-263 264-443 530-443 267 0 433 185 393 418-28 164-126 293-428 566L353-179l-2 12h686L1010 0H61" id="cp"/><g id="W"><use transform="matrix(0.015190972222222224,0,0,0.015190972222222224,0,0)" xlink:href="#cp"/><use transform="matrix(0.015190972222222224,0,0,0.015190972222222224,18.973524305555557,0)" xlink:href="#cl"/></g><path d="M87 0l247-1490h270l211 940c16 74 39 220 54 339 57-123 125-267 165-339l519-940h271L1577 0h-187c75-441 134-849 220-1287C1371-790 1163-459 914 0H749C649-458 553-779 473-1282 408-826 339-440 268 0H87" id="cq"/><path d="M-19 405l72-156c121 32 203 15 288-150l47-93-241-1124h188c55 313 135 616 167 950 142-329 324-636 483-950h205L486 167c-97 177-219 259-378 259-59 0-109-11-127-21" id="cr"/><g id="X"><use transform="matrix(0.015190972222222224,0,0,0.015190972222222224,0,0)" xlink:href="#cq"/><use transform="matrix(0.015190972222222224,0,0,0.015190972222222224,28.103298611111114,0)" xlink:href="#bV"/><use transform="matrix(0.015190972222222224,0,0,0.015190972222222224,46.013454861111114,0)" xlink:href="#cb"/><use transform="matrix(0.015190972222222224,0,0,0.015190972222222224,73.26605902777779,0)" xlink:href="#bZ"/><use transform="matrix(0.015190972222222224,0,0,0.015190972222222224,91.9357638888889,0)" xlink:href="#cf"/><use transform="matrix(0.015190972222222224,0,0,0.015190972222222224,104.14930555555557,0)" xlink:href="#cr"/></g><path d="M677 24c-359 0-556-231-505-538l162-976h190L363-516c-36 218 86 364 321 364 246 0 428-159 464-377l159-961h190l-163 989c-51 309-312 525-657 525" id="cs"/><g id="Y"><use transform="matrix(0.015190972222222224,0,0,0.015190972222222224,0,0)" xlink:href="#cs"/><use transform="matrix(0.015190972222222224,0,0,0.015190972222222224,23.135850694444446,0)" xlink:href="#bW"/><use transform="matrix(0.015190972222222224,0,0,0.015190972222222224,39.54210069444444,0)" xlink:href="#cd"/><use transform="matrix(0.015190972222222224,0,0,0.015190972222222224,58.63715277777778,0)" xlink:href="#ci"/><use transform="matrix(0.015190972222222224,0,0,0.015190972222222224,77.71701388888889,0)" xlink:href="#bV"/></g><path d="M789 20C394 20 94-260 94-744c0-487 300-766 695-766s695 279 695 766c0 264-89 467-233 597l215 271h-285L1058-29C976 3 886 20 789 20zm-94-532h261l108 139c70-83 110-208 110-371 0-321-154-495-385-495s-385 175-385 495c0 356 184 537 481 482" id="ct"/><path d="M513 14c-232 0-385-159-385-421v-711h300v659c0 139 76 222 202 222 127 0 217-86 217-234v-647h301V0H864l-4-232C797-74 683 14 513 14" id="cu"/><path d="M120 396l69-226c123 42 245 23 254-107l8-60L31-1118h319c87 288 199 559 259 872 72-308 185-583 277-872h315L726 132c-68 181-186 294-410 294-79 0-153-13-196-30" id="cv"/><g id="Z"><use transform="matrix(0.015190972222222224,0,0,0.015190972222222224,0,0)" xlink:href="#ct"/><use transform="matrix(0.015190972222222224,0,0,0.015190972222222224,24.168836805555557,0)" xlink:href="#cu"/><use transform="matrix(0.015190972222222224,0,0,0.015190972222222224,43.53732638888889,0)" xlink:href="#ba"/><use transform="matrix(0.015190972222222224,0,0,0.015190972222222224,62.07031250000001,0)" xlink:href="#be"/><use transform="matrix(0.015190972222222224,0,0,0.015190972222222224,75.22569444444446,0)" xlink:href="#cv"/></g><path d="M75-1237v-253h1217v253H837V0H531v-1237H75" id="cw"/><path d="M128 418v-1536h295v188h14c41-89 129-202 319-202 248 0 453 193 453 575 0 372-197 576-455 576-183 0-275-108-317-198h-9v597H128zm534-640c156 0 240-139 240-336 0-196-83-334-240-334-154 0-241 131-241 334 0 202 88 336 241 336" id="cx"/><path d="M128 0v-1490h300v802h17l366-430h347L740-633 1179 0H826L514-456l-86 97V0H128" id="cy"/><g id="aa"><use transform="matrix(0.015190972222222224,0,0,0.015190972222222224,0,0)" xlink:href="#cw"/><use transform="matrix(0.015190972222222224,0,0,0.015190972222222224,18.33550347222222,0)" xlink:href="#bd"/><use transform="matrix(0.015190972222222224,0,0,0.015190972222222224,37.415364583333336,0)" xlink:href="#cx"/><use transform="matrix(0.015190972222222224,0,0,0.015190972222222224,57.02690972222223,0)" xlink:href="#bv"/><use transform="matrix(0.015190972222222224,0,0,0.015190972222222224,71.57986111111111,0)" xlink:href="#cy"/></g><path d="M428-647V0H128v-1490h294v586c65-146 175-228 341-228 232 0 385 159 385 421V0H847v-659c0-139-76-222-202-222-128 0-217 86-217 234" id="cz"/><path d="M572 22C302 22 117-98 78-306l279-48c29 105 101 156 224 156 114 0 185-48 185-115 0-118-228-130-337-155-215-49-322-150-322-317 0-215 187-347 470-347 265 0 424 116 466 298l-266 47c-24-76-87-130-196-130-98 0-174 46-174 113 0 56 38 95 144 117l201 40c216 44 320 143 320 302 0 220-207 367-500 367" id="cA"/><g id="ab"><use transform="matrix(0.015190972222222224,0,0,0.015190972222222224,0,0)" xlink:href="#bb"/><use transform="matrix(0.015190972222222224,0,0,0.015190972222222224,18.30512152777778,0)" xlink:href="#cz"/><use transform="matrix(0.015190972222222224,0,0,0.015190972222222224,37.673611111111114,0)" xlink:href="#cu"/><use transform="matrix(0.015190972222222224,0,0,0.015190972222222224,57.04210069444445,0)" xlink:href="#bh"/><use transform="matrix(0.015190972222222224,0,0,0.015190972222222224,76.41059027777779,0)" xlink:href="#cy"/><use transform="matrix(0.015190972222222224,0,0,0.015190972222222224,94.45746527777779,0)" xlink:href="#cA"/></g><g id="ad"><use transform="matrix(0.015190972222222224,0,0,0.015190972222222224,0,0)" xlink:href="#bL"/><use transform="matrix(0.015190972222222224,0,0,0.015190972222222224,28.103298611111114,0)" xlink:href="#an"/><use transform="matrix(0.015190972222222224,0,0,0.015190972222222224,46.54513888888889,0)" xlink:href="#as"/><use transform="matrix(0.015190972222222224,0,0,0.015190972222222224,64.01475694444446,0)" xlink:href="#bB"/><use transform="matrix(0.015190972222222224,0,0,0.015190972222222224,80.43619791666669,0)" xlink:href="#aS"/><use transform="matrix(0.015190972222222224,0,0,0.015190972222222224,98.8324652777778,0)" xlink:href="#at"/><use transform="matrix(0.015190972222222224,0,0,0.015190972222222224,110.02821180555557,0)" xlink:href="#an"/></g><path d="M548 20C257 20 65-139 95-376h192c-13 142 107 229 276 229 186 0 341-103 367-259 27-162-80-275-301-275H508l28-165h121c172 0 309-98 335-253 25-149-62-246-224-246-155 0-307 87-336 230H249c47-235 281-395 542-395 276 0 424 187 389 399-28 170-144 292-303 337l-2 12c188 31 273 172 242 358-41 246-281 424-569 424" id="cB"/><g id="ae"><use transform="matrix(0.015190972222222224,0,0,0.015190972222222224,0,0)" xlink:href="#cB"/><use transform="matrix(0.015190972222222224,0,0,0.015190972222222224,18.502604166666668,0)" xlink:href="#cl"/></g><path d="M699 20c-338 0-560-226-560-600 0-472 307-930 791-930 337 0 558 226 558 599 0 313-133 619-363 790l153 261h-182L991-42C903-2 805 20 699 20zm41-486h182l114 191c172-141 268-388 268-631 0-280-157-428-381-428-373 0-600 379-600 749 0 360 278 504 578 391" id="cC"/><path d="M87 0l247-1490h510c346 0 473 206 430 472s-238 479-586 479H366L277 0H87zm307-706h312c241 0 351-138 379-311s-39-306-279-306H496" id="cD"/><path d="M575 26C254 26 62-139 87-390h195c-13 168 129 246 305 246 202 0 370-106 400-265 38-202-254-238-427-293-212-68-349-179-316-387 40-252 276-421 566-421 289 0 487 168 458 396h-185c7-144-113-228-291-228-194 0-337 102-361 240-27 156 137 212 244 243l142 41c149 43 400 132 354 412-40 244-251 432-596 432" id="cE"/><g id="af"><use transform="matrix(0.015190972222222224,0,0,0.015190972222222224,0,0)" xlink:href="#cC"/><use transform="matrix(0.015190972222222224,0,0,0.015190972222222224,23.789062500000004,0)" xlink:href="#cD"/><use transform="matrix(0.015190972222222224,0,0,0.015190972222222224,43.65885416666667,0)" xlink:href="#cE"/></g><path d="M79-303l25-155 823-1032h231L989-470h202l-27 167H961L911 0H730l49-303H79zm729-167l130-782h-12L311-482l-2 12h499" id="cF"/><g id="ag"><use transform="matrix(0.015190972222222224,0,0,0.015190972222222224,0,0)" xlink:href="#cF"/><use transform="matrix(0.015190972222222224,0,0,0.015190972222222224,19.079861111111114,0)" xlink:href="#cl"/></g><g id="ah"><use transform="matrix(0.015190972222222224,0,0,0.015190972222222224,0,0)" xlink:href="#cE"/><use transform="matrix(0.015190972222222224,0,0,0.015190972222222224,19.930555555555557,0)" xlink:href="#bV"/><use transform="matrix(0.015190972222222224,0,0,0.015190972222222224,37.84071180555556,0)" xlink:href="#cd"/><use transform="matrix(0.015190972222222224,0,0,0.015190972222222224,56.93576388888889,0)" xlink:href="#cf"/><use transform="matrix(0.015190972222222224,0,0,0.015190972222222224,68.14670138888889,0)" xlink:href="#bU"/><use transform="matrix(0.015190972222222224,0,0,0.015190972222222224,85.93532986111111,0)" xlink:href="#ce"/></g><g id="ai"><use transform="matrix(0.015190972222222224,0,0,0.015190972222222224,0,0)" xlink:href="#bP"/><use transform="matrix(0.015190972222222224,0,0,0.015190972222222224,21.464843750000004,0)" xlink:href="#bU"/><use transform="matrix(0.015190972222222224,0,0,0.015190972222222224,39.25347222222223,0)" xlink:href="#bU"/><use transform="matrix(0.015190972222222224,0,0,0.015190972222222224,57.04210069444446,0)" xlink:href="#ca"/><use transform="matrix(0.015190972222222224,0,0,0.015190972222222224,75.4535590277778,0)" xlink:href="#cf"/><use transform="matrix(0.015190972222222224,0,0,0.015190972222222224,86.6644965277778,0)" xlink:href="#cd"/><use transform="matrix(0.015190972222222224,0,0,0.015190972222222224,105.75954861111114,0)" xlink:href="#bU"/><use transform="matrix(0.015190972222222224,0,0,0.015190972222222224,122.94053819444449,0)" xlink:href="#cr"/></g><path d="M226-608c54-324 228-726 419-973h175c-209 318-363 684-411 972-44 264-11 530 103 888H337C213-15 178-320 226-608" id="cG"/><path d="M87 0l247-1490h510c351 0 476 196 432 460-33 197-146 351-346 417L1163 0H943L728-579c-116 2-237 0-355 1L277 0H87zm314-747h311c238 0 346-110 375-283 31-185-52-293-281-293H496" id="cH"/><path d="M901 395C306 395 18 63 115-525c94-570 471-913 1036-913 549 0 783 392 717 796-46 281-127 612-438 612-150 0-241-65-239-168h-8c-48 83-153 161-308 161-265 0-375-213-329-496 44-271 245-471 484-471 131 0 215 59 241 107h10l14-83h159l-110 659c-13 78 14 150 102 150 146 0 209-145 263-472 55-333-111-652-571-652-457 0-777 289-857 778s131 766 627 766c158 0 340-56 403-76l19 140c-96 38-276 82-429 82zm-2-585c194 0 291-117 330-353s-37-310-214-310c-162 0-284 140-312 311-31 189 14 352 196 352" id="cI"/><path d="M65 0l247-1490h180L349-625h22l559-493h223L606-638 1003 0H772L449-523 313-412 245 0H65" id="cJ"/><path d="M-43 280C186-71 310-340 354-607c48-291 15-654-89-973h176c108 246 149 649 95 974-48 289-184 595-403 886H-43" id="cK"/><g id="aj"><use transform="matrix(0.015190972222222224,0,0,0.015190972222222224,0,0)" xlink:href="#cG"/><use transform="matrix(0.015190972222222224,0,0,0.015190972222222224,11.347656250000002,0)" xlink:href="#cH"/><use transform="matrix(0.015190972222222224,0,0,0.015190972222222224,30.913628472222225,0)" xlink:href="#bV"/><use transform="matrix(0.015190972222222224,0,0,0.015190972222222224,48.82378472222223,0)" xlink:href="#bU"/><use transform="matrix(0.015190972222222224,0,0,0.015190972222222224,66.61241319444446,0)" xlink:href="#cd"/><use transform="matrix(0.015190972222222224,0,0,0.015190972222222224,85.7074652777778,0)" xlink:href="#cn"/><use transform="matrix(0.015190972222222224,0,0,0.015190972222222224,93.24218750000003,0)" xlink:href="#cn"/><use transform="matrix(0.015190972222222224,0,0,0.015190972222222224,100.77690972222226,0)" xlink:href="#cI"/><use transform="matrix(0.015190972222222224,0,0,0.015190972222222224,130.77907986111114,0)" xlink:href="#cJ"/><use transform="matrix(0.015190972222222224,0,0,0.015190972222222224,147.86892361111114,0)" xlink:href="#cK"/></g></defs></g></svg>